<?xml version="1.0" standalone="no"?>
 <!DOCTYPE svg PUBLIC "-//W3C//DTD SVG 1.1//EN" 
 "http://www.w3.org/Graphics/SVG/1.1/DTD/svg11.dtd"> 
<svg xmlns="http://www.w3.org/2000/svg" version="1.1" 
    width="27.94cm" height="21.59cm" viewBox="0 0 110000 85000 ">
<title>SVG Picture created as toner-reva-SMD-F_Adhes.svg date 2019/11/04 14:40:05 </title>
  <desc>Picture generated by PCBNEW </desc>
<g style="fill:#000000; fill-opacity:1;stroke:#000000; stroke-opacity:1;
stroke-linecap:round; stroke-linejoin:round; "
 transform="translate(0 0) scale(1 1)">
</g>
<g style="fill:#000000; fill-opacity:0.0; 
stroke:#000000; stroke-width:-0.000393701; stroke-opacity:1; 
stroke-linecap:round; stroke-linejoin:round;">
</g>
<g style="fill:#000000; fill-opacity:0.0; 
stroke:#000000; stroke-width:59.0551; stroke-opacity:1; 
stroke-linecap:round; stroke-linejoin:round;">
<path d="M94133 58759
L96456 58759
" />
<path d="M90649 55708
L93208 55708
" />
<path d="M69389 65748
L90649 65748
" />
<circle cx="58070.9" cy="58759.8" r="656.168" /> 
<path d="M57086 58759
L59055 58759
" />
<path d="M58070 57775
L58070 59744
" />
<path d="M90649 65748
L90649 55708
" />
<path d="M96456 69980
L94212 69980
" />
<path d="M93208 70964
L93208 73031
" />
<path d="M61259 69980
L59055 69980
" />
<circle cx="59055.1" cy="70964.6" r="656.168" /> 
<path d="M58070 70964
L60039 70964
" />
<path d="M59055 69980
L59055 71948
" />
<circle cx="97440.9" cy="58759.8" r="656.168" /> 
<path d="M96456 58759
L98425 58759
" />
<path d="M97440 57775
L97440 59744
" />
<circle cx="96456.7" cy="57775.6" r="656.168" /> 
<path d="M95472 57775
L97440 57775
" />
<path d="M96456 56791
L96456 58759
" />
<path d="M93208 57874
L94133 58759
" />
<circle cx="61220.5" cy="55708.7" r="656.168" /> 
<path d="M60236 55708
L62204 55708
" />
<path d="M61220 54724
L61220 56692
" />
<path d="M62204 73031
L62204 70925
" />
<circle cx="62204.7" cy="54724.4" r="656.168" /> 
<path d="M61220 54724
L63188 54724
" />
<path d="M62204 53740
L62204 55708
" />
<circle cx="94192.9" cy="73031.5" r="656.168" /> 
<path d="M93208 73031
L95177 73031
" />
<path d="M94192 72047
L94192 74015
" />
<circle cx="93208.7" cy="74015.7" r="656.168" /> 
<path d="M92224 74015
L94192 74015
" />
<path d="M93208 73031
L93208 75000
" />
<path d="M96456 58759
L96456 69980
" />
<circle cx="61220.5" cy="73031.5" r="656.168" /> 
<path d="M60236 73031
L62204 73031
" />
<path d="M61220 72047
L61220 74015
" />
<path d="M59055 69980
L59055 58759
" />
<circle cx="58070.9" cy="69980.3" r="656.168" /> 
<path d="M57086 69980
L59055 69980
" />
<path d="M58070 68996
L58070 70964
" />
<circle cx="96456.7" cy="70964.6" r="656.168" /> 
<path d="M95472 70964
L97440 70964
" />
<path d="M96456 69980
L96456 71948
" />
<path d="M93208 55708
L93208 57874
" />
<path d="M59055 58759
L61318 58759
" />
<path d="M62204 57874
L62204 55708
" />
<circle cx="97440.9" cy="69980.3" r="656.168" /> 
<path d="M96456 69980
L98425 69980
" />
<path d="M97440 68996
L97440 70964
" />
<circle cx="94192.9" cy="55708.7" r="656.168" /> 
<path d="M93208 55708
L95177 55708
" />
<path d="M94192 54724
L94192 56692
" />
<path d="M69389 55708
L69389 65748
" />
<path d="M61259 69980
L62204 70925
" />
<circle cx="62204.7" cy="74015.7" r="656.168" /> 
<path d="M61220 74015
L63188 74015
" />
<path d="M62204 73031
L62204 75000
" />
<path d="M62204 55708
L69389 55708
" />
<path d="M93208 70964
L94212 69980
" />
<circle cx="93208.7" cy="54724.4" r="656.168" /> 
<path d="M92224 54724
L94192 54724
" />
<path d="M93208 53740
L93208 55708
" />
<path d="M93208 73031
L62204 73031
" />
<path d="M62204 57874
L61318 58759
" />
<circle cx="59055.1" cy="57775.6" r="656.168" /> 
<path d="M58070 57775
L60039 57775
" />
<path d="M59055 56791
L59055 58759
" />
<path d="M43897 55511
L43897 57677
" />
<path d="M9744 58562
L12007 58562
" />
<path d="M12893 57677
L12893 55511
" />
<circle cx="48129.9" cy="69783.5" r="656.168" /> 
<path d="M47145 69783
L49114 69783
" />
<path d="M48129 68799
L48129 70767
" />
<circle cx="44881.9" cy="55511.8" r="656.168" /> 
<path d="M43897 55511
L45866 55511
" />
<path d="M44881 54527
L44881 56496
" />
<path d="M20078 55511
L20078 65551
" />
<path d="M11948 69783
L12893 70728
" />
<circle cx="12893.7" cy="73818.9" r="656.168" /> 
<path d="M11909 73818
L13877 73818
" />
<path d="M12893 72834
L12893 74803
" />
<path d="M12893 55511
L20078 55511
" />
<path d="M43897 70767
L44901 69783
" />
<circle cx="43897.6" cy="54527.6" r="656.168" /> 
<path d="M42913 54527
L44881 54527
" />
<path d="M43897 53543
L43897 55511
" />
<path d="M43897 72834
L12893 72834
" />
<path d="M12893 57677
L12007 58562
" />
<circle cx="9744.09" cy="57578.7" r="656.168" /> 
<path d="M8759 57578
L10728 57578
" />
<path d="M9744 56594
L9744 58562
" />
<circle cx="44881.9" cy="72834.6" r="656.168" /> 
<path d="M43897 72834
L45866 72834
" />
<path d="M44881 71850
L44881 73818
" />
<circle cx="43897.6" cy="73818.9" r="656.168" /> 
<path d="M42913 73818
L44881 73818
" />
<path d="M43897 72834
L43897 74803
" />
<path d="M47145 58562
L47145 69783
" />
<circle cx="11909.4" cy="72834.6" r="656.168" /> 
<path d="M10925 72834
L12893 72834
" />
<path d="M11909 71850
L11909 73818
" />
<path d="M9744 69783
L9744 58562
" />
<path d="M44822 58562
L47145 58562
" />
<path d="M41338 55511
L43897 55511
" />
<path d="M20078 65551
L41338 65551
" />
<circle cx="8759.84" cy="58563" r="656.168" /> 
<path d="M7775 58562
L9744 58562
" />
<path d="M8759 57578
L8759 59547
" />
<path d="M41338 65551
L41338 55511
" />
<path d="M47145 69783
L44901 69783
" />
<path d="M43897 70767
L43897 72834
" />
<path d="M11948 69783
L9744 69783
" />
<circle cx="9744.09" cy="70767.7" r="656.168" /> 
<path d="M8759 70767
L10728 70767
" />
<path d="M9744 69783
L9744 71751
" />
<path d="M43897 57677
L44822 58562
" />
<circle cx="11909.4" cy="55511.8" r="656.168" /> 
<path d="M10925 55511
L12893 55511
" />
<path d="M11909 54527
L11909 56496
" />
<path d="M12893 72834
L12893 70728
" />
<circle cx="47145.7" cy="57578.7" r="656.168" /> 
<path d="M46161 57578
L48129 57578
" />
<path d="M47145 56594
L47145 58562
" />
<circle cx="48129.9" cy="58563" r="656.168" /> 
<path d="M47145 58562
L49114 58562
" />
<path d="M48129 57578
L48129 59547
" />
<circle cx="8759.84" cy="69783.5" r="656.168" /> 
<path d="M7775 69783
L9744 69783
" />
<path d="M8759 68799
L8759 70767
" />
<circle cx="47145.7" cy="70767.7" r="656.168" /> 
<path d="M46161 70767
L48129 70767
" />
<path d="M47145 69783
L47145 71751
" />
<circle cx="12893.7" cy="54527.6" r="656.168" /> 
<path d="M11909 54527
L13877 54527
" />
<path d="M12893 53543
L12893 55511
" />
<circle cx="91045.3" cy="50295.3" r="656.168" /> 
<path d="M90061 50295
L92029 50295
" />
<path d="M91045 49311
L91045 51279
" />
<path d="M94293 35039
L94293 46259
" />
<circle cx="59057.1" cy="49311" r="656.168" /> 
<path d="M58072 49311
L60041 49311
" />
<path d="M59057 48326
L59057 50295
" />
<path d="M56891 46259
L56891 35039
" />
<path d="M91970 35039
L94293 35039
" />
<path d="M88486 31988
L91045 31988
" />
<path d="M67226 42027
L88486 42027
" />
<path d="M94293 46259
L92049 46259
" />
<path d="M91045 47244
L91045 49311
" />
<path d="M59096 46259
L56891 46259
" />
<circle cx="56891.7" cy="47244.1" r="656.168" /> 
<path d="M55907 47244
L57875 47244
" />
<path d="M56891 46259
L56891 48228
" />
<path d="M91045 34153
L91970 35039
" />
<path d="M67226 31988
L67226 42027
" />
<path d="M59096 46259
L60041 47204
" />
<circle cx="60041.3" cy="50295.3" r="656.168" /> 
<path d="M59057 50295
L61025 50295
" />
<path d="M60041 49311
L60041 51279
" />
<path d="M60041 31988
L67226 31988
" />
<path d="M91045 47244
L92049 46259
" />
<path d="M88486 42027
L88486 31988
" />
<path d="M91045 49311
L60041 49311
" />
<circle cx="92029.5" cy="49311" r="656.168" /> 
<path d="M91045 49311
L93013 49311
" />
<path d="M92029 48326
L92029 50295
" />
<path d="M91045 31988
L91045 34153
" />
<path d="M60041 49311
L60041 47204
" />
<circle cx="60041.3" cy="31003.9" r="656.168" /> 
<path d="M59057 31003
L61025 31003
" />
<path d="M60041 30019
L60041 31988
" />
<circle cx="59057.1" cy="31988.2" r="656.168" /> 
<path d="M58072 31988
L60041 31988
" />
<path d="M59057 31003
L59057 32972
" />
<circle cx="55907.5" cy="35039.4" r="656.168" /> 
<path d="M54923 35039
L56891 35039
" />
<path d="M55907 34055
L55907 36023
" />
<circle cx="56891.7" cy="34055.1" r="656.168" /> 
<path d="M55907 34055
L57875 34055
" />
<path d="M56891 33070
L56891 35039
" />
<circle cx="91045.3" cy="31003.9" r="656.168" /> 
<path d="M90061 31003
L92029 31003
" />
<path d="M91045 30019
L91045 31988
" />
<circle cx="92029.5" cy="31988.2" r="656.168" /> 
<path d="M91045 31988
L93013 31988
" />
<path d="M92029 31003
L92029 32972
" />
<circle cx="95277.6" cy="35039.4" r="656.168" /> 
<path d="M94293 35039
L96261 35039
" />
<path d="M95277 34055
L95277 36023
" />
<circle cx="94293.3" cy="34055.1" r="656.168" /> 
<path d="M93309 34055
L95277 34055
" />
<path d="M94293 33070
L94293 35039
" />
<circle cx="95277.6" cy="46259.8" r="656.168" /> 
<path d="M94293 46259
L96261 46259
" />
<path d="M95277 45275
L95277 47244
" />
<circle cx="55907.5" cy="46259.8" r="656.168" /> 
<path d="M54923 46259
L56891 46259
" />
<path d="M55907 45275
L55907 47244
" />
<path d="M56891 35039
L59155 35039
" />
<circle cx="94293.3" cy="47244.1" r="656.168" /> 
<path d="M93309 47244
L95277 47244
" />
<path d="M94293 46259
L94293 48228
" />
<path d="M60041 34153
L59155 35039
" />
<path d="M60041 34153
L60041 31988
" />
<path d="M8802 46259
L8802 35039
" />
<path d="M40397 42027
L40397 31988
" />
<path d="M43881 35039
L46204 35039
" />
<path d="M40397 31988
L42956 31988
" />
<path d="M19137 42027
L40397 42027
" />
<path d="M46204 46259
L43960 46259
" />
<path d="M42956 47244
L42956 49311
" />
<path d="M11007 46259
L8802 46259
" />
<circle cx="8802.97" cy="47244.1" r="656.168" /> 
<path d="M7818 47244
L9787 47244
" />
<path d="M8802 46259
L8802 48228
" />
<circle cx="42956.5" cy="50295.3" r="656.168" /> 
<path d="M41972 50295
L43940 50295
" />
<path d="M42956 49311
L42956 51279
" />
<path d="M46204 35039
L46204 46259
" />
<circle cx="10968.3" cy="49311" r="656.168" /> 
<path d="M9984 49311
L11952 49311
" />
<path d="M10968 48326
L10968 50295
" />
<path d="M42956 49311
L11952 49311
" />
<circle cx="43940.8" cy="49311" r="656.168" /> 
<path d="M42956 49311
L44925 49311
" />
<path d="M43940 48326
L43940 50295
" />
<path d="M42956 31988
L42956 34153
" />
<path d="M11952 49311
L11952 47204
" />
<circle cx="11952.6" cy="31003.9" r="656.168" /> 
<path d="M10968 31003
L12936 31003
" />
<path d="M11952 30019
L11952 31988
" />
<circle cx="10968.3" cy="31988.2" r="656.168" /> 
<path d="M9984 31988
L11952 31988
" />
<path d="M10968 31003
L10968 32972
" />
<circle cx="7818.72" cy="35039.4" r="656.168" /> 
<path d="M6834 35039
L8802 35039
" />
<path d="M7818 34055
L7818 36023
" />
<circle cx="8802.97" cy="34055.1" r="656.168" /> 
<path d="M7818 34055
L9787 34055
" />
<path d="M8802 33070
L8802 35039
" />
<circle cx="42956.5" cy="31003.9" r="656.168" /> 
<path d="M41972 31003
L43940 31003
" />
<path d="M42956 30019
L42956 31988
" />
<circle cx="43940.8" cy="31988.2" r="656.168" /> 
<path d="M42956 31988
L44925 31988
" />
<path d="M43940 31003
L43940 32972
" />
<circle cx="47188.8" cy="35039.4" r="656.168" /> 
<path d="M46204 35039
L48173 35039
" />
<path d="M47188 34055
L47188 36023
" />
<circle cx="46204.5" cy="34055.1" r="656.168" /> 
<path d="M45220 34055
L47188 34055
" />
<path d="M46204 33070
L46204 35039
" />
<circle cx="47188.8" cy="46259.8" r="656.168" /> 
<path d="M46204 46259
L48173 46259
" />
<path d="M47188 45275
L47188 47244
" />
<circle cx="7818.72" cy="46259.8" r="656.168" /> 
<path d="M6834 46259
L8802 46259
" />
<path d="M7818 45275
L7818 47244
" />
<path d="M8802 35039
L11066 35039
" />
<circle cx="46204.5" cy="47244.1" r="656.168" /> 
<path d="M45220 47244
L47188 47244
" />
<path d="M46204 46259
L46204 48228
" />
<path d="M19137 31988
L19137 42027
" />
<path d="M11007 46259
L11952 47204
" />
<circle cx="11952.6" cy="50295.3" r="656.168" /> 
<path d="M10968 50295
L12936 50295
" />
<path d="M11952 49311
L11952 51279
" />
<path d="M11952 31988
L19137 31988
" />
<path d="M42956 47244
L43960 46259
" />
<path d="M42956 34153
L43881 35039
" />
<path d="M11952 34153
L11952 31988
" />
<path d="M11952 34153
L11066 35039
" />
<path d="M59793 10433
L58907 11318
" />
<path d="M90797 23523
L91801 22539
" />
<path d="M90797 10433
L91722 11318
" />
<path d="M58848 22539
L59793 23484
" />
<path d="M59793 8267
L66978 8267
" />
<path d="M66978 8267
L66978 18307
" />
<path d="M66978 18307
L88238 18307
" />
<path d="M88238 18307
L88238 8267
" />
<path d="M88238 8267
L90797 8267
" />
<path d="M90797 8267
L90797 10433
" />
<path d="M91722 11318
L94045 11318
" />
<path d="M94045 11318
L94045 22539
" />
<path d="M94045 22539
L91801 22539
" />
<path d="M90797 23523
L90797 25590
" />
<path d="M90797 25590
L59793 25590
" />
<path d="M59793 25590
L59793 23484
" />
<path d="M58848 22539
L56643 22539
" />
<path d="M56643 22539
L56643 11318
" />
<path d="M56643 11318
L58907 11318
" />
<circle cx="59793.3" cy="7283.46" r="656.168" /> 
<path d="M58809 7283
L60777 7283
" />
<path d="M59793 6299
L59793 8267
" />
<circle cx="58809.1" cy="8267.72" r="656.168" /> 
<path d="M57824 8267
L59793 8267
" />
<path d="M58809 7283
L58809 9251
" />
<circle cx="55659.4" cy="11318.9" r="656.168" /> 
<path d="M54675 11318
L56643 11318
" />
<path d="M55659 10334
L55659 12303
" />
<circle cx="56643.7" cy="10334.6" r="656.168" /> 
<path d="M55659 10334
L57627 10334
" />
<path d="M56643 9350
L56643 11318
" />
<circle cx="90797.2" cy="7283.46" r="656.168" /> 
<path d="M89812 7283
L91781 7283
" />
<path d="M90797 6299
L90797 8267
" />
<circle cx="91781.5" cy="8267.72" r="656.168" /> 
<path d="M90797 8267
L92765 8267
" />
<path d="M91781 7283
L91781 9251
" />
<circle cx="95029.5" cy="11318.9" r="656.168" /> 
<path d="M94045 11318
L96013 11318
" />
<path d="M95029 10334
L95029 12303
" />
<circle cx="94045.3" cy="10334.6" r="656.168" /> 
<path d="M93061 10334
L95029 10334
" />
<path d="M94045 9350
L94045 11318
" />
<circle cx="95029.5" cy="22539.4" r="656.168" /> 
<path d="M94045 22539
L96013 22539
" />
<path d="M95029 21555
L95029 23523
" />
<circle cx="94045.3" cy="23523.6" r="656.168" /> 
<path d="M93061 23523
L95029 23523
" />
<path d="M94045 22539
L94045 24507
" />
<circle cx="91781.5" cy="25590.6" r="656.168" /> 
<path d="M90797 25590
L92765 25590
" />
<path d="M91781 24606
L91781 26574
" />
<circle cx="90797.2" cy="26574.8" r="656.168" /> 
<path d="M89812 26574
L91781 26574
" />
<path d="M90797 25590
L90797 27559
" />
<circle cx="59793.3" cy="26574.8" r="656.168" /> 
<path d="M58809 26574
L60777 26574
" />
<path d="M59793 25590
L59793 27559
" />
<circle cx="58809.1" cy="25590.6" r="656.168" /> 
<path d="M57824 25590
L59793 25590
" />
<path d="M58809 24606
L58809 26574
" />
<circle cx="56643.7" cy="23523.6" r="656.168" /> 
<path d="M55659 23523
L57627 23523
" />
<path d="M56643 22539
L56643 24507
" />
<circle cx="55659.4" cy="22539.4" r="656.168" /> 
<path d="M54675 22539
L56643 22539
" />
<path d="M55659 21555
L55659 23523
" />
<path d="M59793 10433
L59793 8267
" />
<circle cx="7775.59" cy="22637.8" r="656.168" /> 
<path d="M6791 22637
L8759 22637
" />
<path d="M7775 21653
L7775 23622
" />
<circle cx="8759.84" cy="23622" r="656.168" /> 
<path d="M7775 23622
L9744 23622
" />
<path d="M8759 22637
L8759 24606
" />
<circle cx="10925.2" cy="25689" r="656.168" /> 
<path d="M9940 25688
L11909 25688
" />
<path d="M10925 24704
L10925 26673
" />
<circle cx="11909.4" cy="26673.2" r="656.168" /> 
<path d="M10925 26673
L12893 26673
" />
<path d="M11909 25688
L11909 27657
" />
<circle cx="42913.4" cy="26673.2" r="656.168" /> 
<path d="M41929 26673
L43897 26673
" />
<path d="M42913 25688
L42913 27657
" />
<circle cx="43897.6" cy="25689" r="656.168" /> 
<path d="M42913 25688
L44881 25688
" />
<path d="M43897 24704
L43897 26673
" />
<circle cx="46161.4" cy="23622" r="656.168" /> 
<path d="M45177 23622
L47145 23622
" />
<path d="M46161 22637
L46161 24606
" />
<circle cx="47145.7" cy="22637.8" r="656.168" /> 
<path d="M46161 22637
L48129 22637
" />
<path d="M47145 21653
L47145 23622
" />
<circle cx="46161.4" cy="10433.1" r="656.168" /> 
<path d="M45177 10433
L47145 10433
" />
<path d="M46161 9448
L46161 11417
" />
<circle cx="47145.7" cy="11417.3" r="656.168" /> 
<path d="M46161 11417
L48129 11417
" />
<path d="M47145 10433
L47145 12401
" />
<circle cx="43897.6" cy="8366.14" r="656.168" /> 
<path d="M42913 8366
L44881 8366
" />
<path d="M43897 7381
L43897 9350
" />
<circle cx="42913.4" cy="7381.89" r="656.168" /> 
<path d="M41929 7381
L43897 7381
" />
<path d="M42913 6397
L42913 8366
" />
<circle cx="8759.84" cy="10433.1" r="656.168" /> 
<path d="M7775 10433
L9744 10433
" />
<path d="M8759 9448
L8759 11417
" />
<circle cx="7775.59" cy="11417.3" r="656.168" /> 
<path d="M6791 11417
L8759 11417
" />
<path d="M7775 10433
L7775 12401
" />
<circle cx="10925.2" cy="8366.14" r="656.168" /> 
<path d="M9940 8366
L11909 8366
" />
<path d="M10925 7381
L10925 9350
" />
<circle cx="11909.4" cy="7381.89" r="656.168" /> 
<path d="M10925 7381
L12893 7381
" />
<path d="M11909 6397
L11909 8366
" />
<path d="M42913 10531
L43838 11417
" />
<path d="M42913 23622
L43917 22637
" />
<path d="M10964 22637
L11909 23582
" />
<path d="M11909 10531
L11023 11417
" />
<path d="M11909 10531
L11909 8366
" />
<path d="M8759 11417
L11023 11417
" />
<path d="M8759 22637
L8759 11417
" />
<path d="M10964 22637
L8759 22637
" />
<path d="M11909 25688
L11909 23582
" />
<path d="M42913 25688
L11909 25688
" />
<path d="M42913 23622
L42913 25688
" />
<path d="M46161 22637
L43917 22637
" />
<path d="M46161 11417
L46161 22637
" />
<path d="M43838 11417
L46161 11417
" />
<path d="M42913 8366
L42913 10531
" />
<path d="M40354 8366
L42913 8366
" />
<path d="M40354 18405
L40354 8366
" />
<path d="M19094 18405
L40354 18405
" />
<path d="M19094 8366
L19094 18405
" />
<path d="M11909 8366
L19094 8366
" />
<g >
</g>
<g >
</g>
<g >
</g>
<g >
</g>
<g >
</g>
<g >
</g>
<g >
</g>
<g >
</g>
<g >
</g>
<g >
</g>
<g >
</g>
<g >
</g>
<g >
</g>
<g >
</g>
<g >
</g>
<g >
</g>
<g >
</g>
<g >
</g>
<g >
</g>
<g >
</g>
<g >
</g>
<g >
</g>
<g >
</g>
<g >
</g>
<g >
</g>
<g >
</g>
<g >
</g>
<g >
</g>
<g >
</g>
<g >
</g>
<g >
</g>
<g >
</g>
<g >
</g>
<g >
</g>
<g >
</g>
<g >
</g>
<g >
</g>
<g >
</g>
<g >
</g>
<g >
</g>
<g >
</g>
<g >
</g>
<g >
</g>
<g >
</g>
<g >
</g>
<g >
</g>
<g >
</g>
<g >
</g>
<g >
</g>
<g >
</g>
<g >
</g>
<g >
</g>
<g >
</g>
<g >
</g>
<g >
</g>
<g >
</g>
<g >
</g>
<g >
</g>
<g >
</g>
<g >
</g>
<g >
</g>
<g >
</g>
<g >
</g>
<g >
</g>
<g >
</g>
<g >
</g>
<g >
</g>
<g >
</g>
<g >
</g>
<g >
</g>
<g >
</g>
<g >
</g>
<g >
</g>
<g >
</g>
<g >
</g>
<g >
</g>
<g >
</g>
<g >
</g>
<g >
</g>
<g >
</g>
<g >
</g>
<g >
</g>
<g >
</g>
<g >
</g>
<g >
</g>
<g >
</g>
<g >
</g>
<g >
</g>
<g >
</g>
<g >
</g>
<g >
</g>
<g >
</g>
<g >
</g>
<g >
</g>
<g >
</g>
<g >
</g>
<g >
</g>
<g >
</g>
<g >
</g>
<g >
</g>
<g >
</g>
<g >
</g>
<g >
</g>
<g >
</g>
<g >
</g>
<g >
</g>
<g >
</g>
<g >
</g>
<g >
</g>
<g >
</g>
<g >
</g>
<g >
</g>
<g >
</g>
<g >
</g>
<g >
</g>
<g >
</g>
<g >
</g>
<g >
</g>
<g >
</g>
<g >
</g>
<g >
</g>
<g >
</g>
<g >
</g>
</g> 
</svg>
