<?xml version="1.0" standalone="no"?>
 <!DOCTYPE svg PUBLIC "-//W3C//DTD SVG 1.1//EN" 
 "http://www.w3.org/Graphics/SVG/1.1/DTD/svg11.dtd"> 
<svg xmlns="http://www.w3.org/2000/svg" version="1.1" 
    width="27.94cm" height="21.59cm" viewBox="0 0 110000 85000 ">
<title>SVG Picture created as toner-reva-SMD-F_CrtYd.svg date 2019/11/04 14:40:06 </title>
  <desc>Picture generated by PCBNEW </desc>
<g style="fill:#000000; fill-opacity:1;stroke:#000000; stroke-opacity:1;
stroke-linecap:round; stroke-linejoin:round; "
 transform="translate(0 0) scale(1 1)">
</g>
<g style="fill:#000000; fill-opacity:0.0; 
stroke:#000000; stroke-width:-0.000393701; stroke-opacity:1; 
stroke-linecap:round; stroke-linejoin:round;">
</g>
<g style="fill:#000000; fill-opacity:0.0; 
stroke:#000000; stroke-width:59.0551; stroke-opacity:1; 
stroke-linecap:round; stroke-linejoin:round;">
<path d="M94133 58759
L96456 58759
" />
<path d="M90649 55708
L93208 55708
" />
<path d="M69389 65748
L90649 65748
" />
<circle cx="58070.9" cy="58759.8" r="656.168" /> 
<path d="M57086 58759
L59055 58759
" />
<path d="M58070 57775
L58070 59744
" />
<path d="M90649 65748
L90649 55708
" />
<path d="M96456 69980
L94212 69980
" />
<path d="M93208 70964
L93208 73031
" />
<path d="M61259 69980
L59055 69980
" />
<circle cx="59055.1" cy="70964.6" r="656.168" /> 
<path d="M58070 70964
L60039 70964
" />
<path d="M59055 69980
L59055 71948
" />
<circle cx="97440.9" cy="58759.8" r="656.168" /> 
<path d="M96456 58759
L98425 58759
" />
<path d="M97440 57775
L97440 59744
" />
<circle cx="96456.7" cy="57775.6" r="656.168" /> 
<path d="M95472 57775
L97440 57775
" />
<path d="M96456 56791
L96456 58759
" />
<path d="M93208 57874
L94133 58759
" />
<circle cx="61220.5" cy="55708.7" r="656.168" /> 
<path d="M60236 55708
L62204 55708
" />
<path d="M61220 54724
L61220 56692
" />
<path d="M62204 73031
L62204 70925
" />
<circle cx="62204.7" cy="54724.4" r="656.168" /> 
<path d="M61220 54724
L63188 54724
" />
<path d="M62204 53740
L62204 55708
" />
<circle cx="94192.9" cy="73031.5" r="656.168" /> 
<path d="M93208 73031
L95177 73031
" />
<path d="M94192 72047
L94192 74015
" />
<circle cx="93208.7" cy="74015.7" r="656.168" /> 
<path d="M92224 74015
L94192 74015
" />
<path d="M93208 73031
L93208 75000
" />
<path d="M96456 58759
L96456 69980
" />
<circle cx="61220.5" cy="73031.5" r="656.168" /> 
<path d="M60236 73031
L62204 73031
" />
<path d="M61220 72047
L61220 74015
" />
<path d="M59055 69980
L59055 58759
" />
<circle cx="58070.9" cy="69980.3" r="656.168" /> 
<path d="M57086 69980
L59055 69980
" />
<path d="M58070 68996
L58070 70964
" />
<circle cx="96456.7" cy="70964.6" r="656.168" /> 
<path d="M95472 70964
L97440 70964
" />
<path d="M96456 69980
L96456 71948
" />
<path d="M93208 55708
L93208 57874
" />
<path d="M59055 58759
L61318 58759
" />
<path d="M62204 57874
L62204 55708
" />
<circle cx="97440.9" cy="69980.3" r="656.168" /> 
<path d="M96456 69980
L98425 69980
" />
<path d="M97440 68996
L97440 70964
" />
<circle cx="94192.9" cy="55708.7" r="656.168" /> 
<path d="M93208 55708
L95177 55708
" />
<path d="M94192 54724
L94192 56692
" />
<path d="M69389 55708
L69389 65748
" />
<path d="M61259 69980
L62204 70925
" />
<circle cx="62204.7" cy="74015.7" r="656.168" /> 
<path d="M61220 74015
L63188 74015
" />
<path d="M62204 73031
L62204 75000
" />
<path d="M62204 55708
L69389 55708
" />
<path d="M93208 70964
L94212 69980
" />
<circle cx="93208.7" cy="54724.4" r="656.168" /> 
<path d="M92224 54724
L94192 54724
" />
<path d="M93208 53740
L93208 55708
" />
<path d="M93208 73031
L62204 73031
" />
<path d="M62204 57874
L61318 58759
" />
<circle cx="59055.1" cy="57775.6" r="656.168" /> 
<path d="M58070 57775
L60039 57775
" />
<path d="M59055 56791
L59055 58759
" />
<path d="M43897 55511
L43897 57677
" />
<path d="M9744 58562
L12007 58562
" />
<path d="M12893 57677
L12893 55511
" />
<circle cx="48129.9" cy="69783.5" r="656.168" /> 
<path d="M47145 69783
L49114 69783
" />
<path d="M48129 68799
L48129 70767
" />
<circle cx="44881.9" cy="55511.8" r="656.168" /> 
<path d="M43897 55511
L45866 55511
" />
<path d="M44881 54527
L44881 56496
" />
<path d="M20078 55511
L20078 65551
" />
<path d="M11948 69783
L12893 70728
" />
<circle cx="12893.7" cy="73818.9" r="656.168" /> 
<path d="M11909 73818
L13877 73818
" />
<path d="M12893 72834
L12893 74803
" />
<path d="M12893 55511
L20078 55511
" />
<path d="M43897 70767
L44901 69783
" />
<circle cx="43897.6" cy="54527.6" r="656.168" /> 
<path d="M42913 54527
L44881 54527
" />
<path d="M43897 53543
L43897 55511
" />
<path d="M43897 72834
L12893 72834
" />
<path d="M12893 57677
L12007 58562
" />
<circle cx="9744.09" cy="57578.7" r="656.168" /> 
<path d="M8759 57578
L10728 57578
" />
<path d="M9744 56594
L9744 58562
" />
<circle cx="44881.9" cy="72834.6" r="656.168" /> 
<path d="M43897 72834
L45866 72834
" />
<path d="M44881 71850
L44881 73818
" />
<circle cx="43897.6" cy="73818.9" r="656.168" /> 
<path d="M42913 73818
L44881 73818
" />
<path d="M43897 72834
L43897 74803
" />
<path d="M47145 58562
L47145 69783
" />
<circle cx="11909.4" cy="72834.6" r="656.168" /> 
<path d="M10925 72834
L12893 72834
" />
<path d="M11909 71850
L11909 73818
" />
<path d="M9744 69783
L9744 58562
" />
<path d="M44822 58562
L47145 58562
" />
<path d="M41338 55511
L43897 55511
" />
<path d="M20078 65551
L41338 65551
" />
<circle cx="8759.84" cy="58563" r="656.168" /> 
<path d="M7775 58562
L9744 58562
" />
<path d="M8759 57578
L8759 59547
" />
<path d="M41338 65551
L41338 55511
" />
<path d="M47145 69783
L44901 69783
" />
<path d="M43897 70767
L43897 72834
" />
<path d="M11948 69783
L9744 69783
" />
<circle cx="9744.09" cy="70767.7" r="656.168" /> 
<path d="M8759 70767
L10728 70767
" />
<path d="M9744 69783
L9744 71751
" />
<path d="M43897 57677
L44822 58562
" />
<circle cx="11909.4" cy="55511.8" r="656.168" /> 
<path d="M10925 55511
L12893 55511
" />
<path d="M11909 54527
L11909 56496
" />
<path d="M12893 72834
L12893 70728
" />
<circle cx="47145.7" cy="57578.7" r="656.168" /> 
<path d="M46161 57578
L48129 57578
" />
<path d="M47145 56594
L47145 58562
" />
<circle cx="48129.9" cy="58563" r="656.168" /> 
<path d="M47145 58562
L49114 58562
" />
<path d="M48129 57578
L48129 59547
" />
<circle cx="8759.84" cy="69783.5" r="656.168" /> 
<path d="M7775 69783
L9744 69783
" />
<path d="M8759 68799
L8759 70767
" />
<circle cx="47145.7" cy="70767.7" r="656.168" /> 
<path d="M46161 70767
L48129 70767
" />
<path d="M47145 69783
L47145 71751
" />
<circle cx="12893.7" cy="54527.6" r="656.168" /> 
<path d="M11909 54527
L13877 54527
" />
<path d="M12893 53543
L12893 55511
" />
<circle cx="91045.3" cy="50295.3" r="656.168" /> 
<path d="M90061 50295
L92029 50295
" />
<path d="M91045 49311
L91045 51279
" />
<path d="M94293 35039
L94293 46259
" />
<circle cx="59057.1" cy="49311" r="656.168" /> 
<path d="M58072 49311
L60041 49311
" />
<path d="M59057 48326
L59057 50295
" />
<path d="M56891 46259
L56891 35039
" />
<path d="M91970 35039
L94293 35039
" />
<path d="M88486 31988
L91045 31988
" />
<path d="M67226 42027
L88486 42027
" />
<path d="M94293 46259
L92049 46259
" />
<path d="M91045 47244
L91045 49311
" />
<path d="M59096 46259
L56891 46259
" />
<circle cx="56891.7" cy="47244.1" r="656.168" /> 
<path d="M55907 47244
L57875 47244
" />
<path d="M56891 46259
L56891 48228
" />
<path d="M91045 34153
L91970 35039
" />
<path d="M67226 31988
L67226 42027
" />
<path d="M59096 46259
L60041 47204
" />
<circle cx="60041.3" cy="50295.3" r="656.168" /> 
<path d="M59057 50295
L61025 50295
" />
<path d="M60041 49311
L60041 51279
" />
<path d="M60041 31988
L67226 31988
" />
<path d="M91045 47244
L92049 46259
" />
<path d="M88486 42027
L88486 31988
" />
<path d="M91045 49311
L60041 49311
" />
<circle cx="92029.5" cy="49311" r="656.168" /> 
<path d="M91045 49311
L93013 49311
" />
<path d="M92029 48326
L92029 50295
" />
<path d="M91045 31988
L91045 34153
" />
<path d="M60041 49311
L60041 47204
" />
<circle cx="60041.3" cy="31003.9" r="656.168" /> 
<path d="M59057 31003
L61025 31003
" />
<path d="M60041 30019
L60041 31988
" />
<circle cx="59057.1" cy="31988.2" r="656.168" /> 
<path d="M58072 31988
L60041 31988
" />
<path d="M59057 31003
L59057 32972
" />
<circle cx="55907.5" cy="35039.4" r="656.168" /> 
<path d="M54923 35039
L56891 35039
" />
<path d="M55907 34055
L55907 36023
" />
<circle cx="56891.7" cy="34055.1" r="656.168" /> 
<path d="M55907 34055
L57875 34055
" />
<path d="M56891 33070
L56891 35039
" />
<circle cx="91045.3" cy="31003.9" r="656.168" /> 
<path d="M90061 31003
L92029 31003
" />
<path d="M91045 30019
L91045 31988
" />
<circle cx="92029.5" cy="31988.2" r="656.168" /> 
<path d="M91045 31988
L93013 31988
" />
<path d="M92029 31003
L92029 32972
" />
<circle cx="95277.6" cy="35039.4" r="656.168" /> 
<path d="M94293 35039
L96261 35039
" />
<path d="M95277 34055
L95277 36023
" />
<circle cx="94293.3" cy="34055.1" r="656.168" /> 
<path d="M93309 34055
L95277 34055
" />
<path d="M94293 33070
L94293 35039
" />
<circle cx="95277.6" cy="46259.8" r="656.168" /> 
<path d="M94293 46259
L96261 46259
" />
<path d="M95277 45275
L95277 47244
" />
<circle cx="55907.5" cy="46259.8" r="656.168" /> 
<path d="M54923 46259
L56891 46259
" />
<path d="M55907 45275
L55907 47244
" />
<path d="M56891 35039
L59155 35039
" />
<circle cx="94293.3" cy="47244.1" r="656.168" /> 
<path d="M93309 47244
L95277 47244
" />
<path d="M94293 46259
L94293 48228
" />
<path d="M60041 34153
L59155 35039
" />
<path d="M60041 34153
L60041 31988
" />
<path d="M8802 46259
L8802 35039
" />
<path d="M40397 42027
L40397 31988
" />
<path d="M43881 35039
L46204 35039
" />
<path d="M40397 31988
L42956 31988
" />
<path d="M19137 42027
L40397 42027
" />
<path d="M46204 46259
L43960 46259
" />
<path d="M42956 47244
L42956 49311
" />
<path d="M11007 46259
L8802 46259
" />
<circle cx="8802.97" cy="47244.1" r="656.168" /> 
<path d="M7818 47244
L9787 47244
" />
<path d="M8802 46259
L8802 48228
" />
<circle cx="42956.5" cy="50295.3" r="656.168" /> 
<path d="M41972 50295
L43940 50295
" />
<path d="M42956 49311
L42956 51279
" />
<path d="M46204 35039
L46204 46259
" />
<circle cx="10968.3" cy="49311" r="656.168" /> 
<path d="M9984 49311
L11952 49311
" />
<path d="M10968 48326
L10968 50295
" />
<path d="M42956 49311
L11952 49311
" />
<circle cx="43940.8" cy="49311" r="656.168" /> 
<path d="M42956 49311
L44925 49311
" />
<path d="M43940 48326
L43940 50295
" />
<path d="M42956 31988
L42956 34153
" />
<path d="M11952 49311
L11952 47204
" />
<circle cx="11952.6" cy="31003.9" r="656.168" /> 
<path d="M10968 31003
L12936 31003
" />
<path d="M11952 30019
L11952 31988
" />
<circle cx="10968.3" cy="31988.2" r="656.168" /> 
<path d="M9984 31988
L11952 31988
" />
<path d="M10968 31003
L10968 32972
" />
<circle cx="7818.72" cy="35039.4" r="656.168" /> 
<path d="M6834 35039
L8802 35039
" />
<path d="M7818 34055
L7818 36023
" />
<circle cx="8802.97" cy="34055.1" r="656.168" /> 
<path d="M7818 34055
L9787 34055
" />
<path d="M8802 33070
L8802 35039
" />
<circle cx="42956.5" cy="31003.9" r="656.168" /> 
<path d="M41972 31003
L43940 31003
" />
<path d="M42956 30019
L42956 31988
" />
<circle cx="43940.8" cy="31988.2" r="656.168" /> 
<path d="M42956 31988
L44925 31988
" />
<path d="M43940 31003
L43940 32972
" />
<circle cx="47188.8" cy="35039.4" r="656.168" /> 
<path d="M46204 35039
L48173 35039
" />
<path d="M47188 34055
L47188 36023
" />
<circle cx="46204.5" cy="34055.1" r="656.168" /> 
<path d="M45220 34055
L47188 34055
" />
<path d="M46204 33070
L46204 35039
" />
<circle cx="47188.8" cy="46259.8" r="656.168" /> 
<path d="M46204 46259
L48173 46259
" />
<path d="M47188 45275
L47188 47244
" />
<circle cx="7818.72" cy="46259.8" r="656.168" /> 
<path d="M6834 46259
L8802 46259
" />
<path d="M7818 45275
L7818 47244
" />
<path d="M8802 35039
L11066 35039
" />
<circle cx="46204.5" cy="47244.1" r="656.168" /> 
<path d="M45220 47244
L47188 47244
" />
<path d="M46204 46259
L46204 48228
" />
<path d="M19137 31988
L19137 42027
" />
<path d="M11007 46259
L11952 47204
" />
<circle cx="11952.6" cy="50295.3" r="656.168" /> 
<path d="M10968 50295
L12936 50295
" />
<path d="M11952 49311
L11952 51279
" />
<path d="M11952 31988
L19137 31988
" />
<path d="M42956 47244
L43960 46259
" />
<path d="M42956 34153
L43881 35039
" />
<path d="M11952 34153
L11952 31988
" />
<path d="M11952 34153
L11066 35039
" />
<path d="M59793 10433
L58907 11318
" />
<path d="M90797 23523
L91801 22539
" />
<path d="M90797 10433
L91722 11318
" />
<path d="M58848 22539
L59793 23484
" />
<path d="M59793 8267
L66978 8267
" />
<path d="M66978 8267
L66978 18307
" />
<path d="M66978 18307
L88238 18307
" />
<path d="M88238 18307
L88238 8267
" />
<path d="M88238 8267
L90797 8267
" />
<path d="M90797 8267
L90797 10433
" />
<path d="M91722 11318
L94045 11318
" />
<path d="M94045 11318
L94045 22539
" />
<path d="M94045 22539
L91801 22539
" />
<path d="M90797 23523
L90797 25590
" />
<path d="M90797 25590
L59793 25590
" />
<path d="M59793 25590
L59793 23484
" />
<path d="M58848 22539
L56643 22539
" />
<path d="M56643 22539
L56643 11318
" />
<path d="M56643 11318
L58907 11318
" />
<circle cx="59793.3" cy="7283.46" r="656.168" /> 
<path d="M58809 7283
L60777 7283
" />
<path d="M59793 6299
L59793 8267
" />
<circle cx="58809.1" cy="8267.72" r="656.168" /> 
<path d="M57824 8267
L59793 8267
" />
<path d="M58809 7283
L58809 9251
" />
<circle cx="55659.4" cy="11318.9" r="656.168" /> 
<path d="M54675 11318
L56643 11318
" />
<path d="M55659 10334
L55659 12303
" />
<circle cx="56643.7" cy="10334.6" r="656.168" /> 
<path d="M55659 10334
L57627 10334
" />
<path d="M56643 9350
L56643 11318
" />
<circle cx="90797.2" cy="7283.46" r="656.168" /> 
<path d="M89812 7283
L91781 7283
" />
<path d="M90797 6299
L90797 8267
" />
<circle cx="91781.5" cy="8267.72" r="656.168" /> 
<path d="M90797 8267
L92765 8267
" />
<path d="M91781 7283
L91781 9251
" />
<circle cx="95029.5" cy="11318.9" r="656.168" /> 
<path d="M94045 11318
L96013 11318
" />
<path d="M95029 10334
L95029 12303
" />
<circle cx="94045.3" cy="10334.6" r="656.168" /> 
<path d="M93061 10334
L95029 10334
" />
<path d="M94045 9350
L94045 11318
" />
<circle cx="95029.5" cy="22539.4" r="656.168" /> 
<path d="M94045 22539
L96013 22539
" />
<path d="M95029 21555
L95029 23523
" />
<circle cx="94045.3" cy="23523.6" r="656.168" /> 
<path d="M93061 23523
L95029 23523
" />
<path d="M94045 22539
L94045 24507
" />
<circle cx="91781.5" cy="25590.6" r="656.168" /> 
<path d="M90797 25590
L92765 25590
" />
<path d="M91781 24606
L91781 26574
" />
<circle cx="90797.2" cy="26574.8" r="656.168" /> 
<path d="M89812 26574
L91781 26574
" />
<path d="M90797 25590
L90797 27559
" />
<circle cx="59793.3" cy="26574.8" r="656.168" /> 
<path d="M58809 26574
L60777 26574
" />
<path d="M59793 25590
L59793 27559
" />
<circle cx="58809.1" cy="25590.6" r="656.168" /> 
<path d="M57824 25590
L59793 25590
" />
<path d="M58809 24606
L58809 26574
" />
<circle cx="56643.7" cy="23523.6" r="656.168" /> 
<path d="M55659 23523
L57627 23523
" />
<path d="M56643 22539
L56643 24507
" />
<circle cx="55659.4" cy="22539.4" r="656.168" /> 
<path d="M54675 22539
L56643 22539
" />
<path d="M55659 21555
L55659 23523
" />
<path d="M59793 10433
L59793 8267
" />
<circle cx="7775.59" cy="22637.8" r="656.168" /> 
<path d="M6791 22637
L8759 22637
" />
<path d="M7775 21653
L7775 23622
" />
<circle cx="8759.84" cy="23622" r="656.168" /> 
<path d="M7775 23622
L9744 23622
" />
<path d="M8759 22637
L8759 24606
" />
<circle cx="10925.2" cy="25689" r="656.168" /> 
<path d="M9940 25688
L11909 25688
" />
<path d="M10925 24704
L10925 26673
" />
<circle cx="11909.4" cy="26673.2" r="656.168" /> 
<path d="M10925 26673
L12893 26673
" />
<path d="M11909 25688
L11909 27657
" />
<circle cx="42913.4" cy="26673.2" r="656.168" /> 
<path d="M41929 26673
L43897 26673
" />
<path d="M42913 25688
L42913 27657
" />
<circle cx="43897.6" cy="25689" r="656.168" /> 
<path d="M42913 25688
L44881 25688
" />
<path d="M43897 24704
L43897 26673
" />
<circle cx="46161.4" cy="23622" r="656.168" /> 
<path d="M45177 23622
L47145 23622
" />
<path d="M46161 22637
L46161 24606
" />
<circle cx="47145.7" cy="22637.8" r="656.168" /> 
<path d="M46161 22637
L48129 22637
" />
<path d="M47145 21653
L47145 23622
" />
<circle cx="46161.4" cy="10433.1" r="656.168" /> 
<path d="M45177 10433
L47145 10433
" />
<path d="M46161 9448
L46161 11417
" />
<circle cx="47145.7" cy="11417.3" r="656.168" /> 
<path d="M46161 11417
L48129 11417
" />
<path d="M47145 10433
L47145 12401
" />
<circle cx="43897.6" cy="8366.14" r="656.168" /> 
<path d="M42913 8366
L44881 8366
" />
<path d="M43897 7381
L43897 9350
" />
<circle cx="42913.4" cy="7381.89" r="656.168" /> 
<path d="M41929 7381
L43897 7381
" />
<path d="M42913 6397
L42913 8366
" />
<circle cx="8759.84" cy="10433.1" r="656.168" /> 
<path d="M7775 10433
L9744 10433
" />
<path d="M8759 9448
L8759 11417
" />
<circle cx="7775.59" cy="11417.3" r="656.168" /> 
<path d="M6791 11417
L8759 11417
" />
<path d="M7775 10433
L7775 12401
" />
<circle cx="10925.2" cy="8366.14" r="656.168" /> 
<path d="M9940 8366
L11909 8366
" />
<path d="M10925 7381
L10925 9350
" />
<circle cx="11909.4" cy="7381.89" r="656.168" /> 
<path d="M10925 7381
L12893 7381
" />
<path d="M11909 6397
L11909 8366
" />
<path d="M42913 10531
L43838 11417
" />
<path d="M42913 23622
L43917 22637
" />
<path d="M10964 22637
L11909 23582
" />
<path d="M11909 10531
L11023 11417
" />
<path d="M11909 10531
L11909 8366
" />
<path d="M8759 11417
L11023 11417
" />
<path d="M8759 22637
L8759 11417
" />
<path d="M10964 22637
L8759 22637
" />
<path d="M11909 25688
L11909 23582
" />
<path d="M42913 25688
L11909 25688
" />
<path d="M42913 23622
L42913 25688
" />
<path d="M46161 22637
L43917 22637
" />
<path d="M46161 11417
L46161 22637
" />
<path d="M43838 11417
L46161 11417
" />
<path d="M42913 8366
L42913 10531
" />
<path d="M40354 8366
L42913 8366
" />
<path d="M40354 18405
L40354 8366
" />
<path d="M19094 18405
L40354 18405
" />
<path d="M19094 8366
L19094 18405
" />
<path d="M11909 8366
L19094 8366
" />
</g>
<g style="fill:#000000; fill-opacity:0.0; 
stroke:#000000; stroke-width:19.685; stroke-opacity:1; 
stroke-linecap:round; stroke-linejoin:round;">
<path d="M86848 71078
L86848 69275
" />
<path d="M87753 71078
L86848 71078
" />
<path d="M87753 69275
L87753 71078
" />
<path d="M86848 69275
L87753 69275
" />
<circle cx="67519.7" cy="64370.1" r="1377.95" /> 
<path d="M68996 67027
L66043 67027
" />
<path d="M68996 61712
L68996 67027
" />
<path d="M66043 61712
L68996 61712
" />
<path d="M66043 67027
L66043 61712
" />
<path d="M84531 69133
L86334 69133
" />
<path d="M84531 70039
L84531 69133
" />
<path d="M86334 70039
L84531 70039
" />
<path d="M86334 69133
L86334 70039
" />
<path d="M89822 69277
L89822 71080
" />
<path d="M88917 69277
L89822 69277
" />
<path d="M88917 71080
L88917 69277
" />
<path d="M89822 71080
L88917 71080
" />
<path d="M71397 67651
L72303 67651
" />
<path d="M72303 67651
L72303 69454
" />
<path d="M72303 69454
L71397 69454
" />
<path d="M71397 69454
L71397 67651
" />
<path d="M93129 64488
L93129 62066
" />
<path d="M93129 62066
L91712 62066
" />
<path d="M91712 62066
L91712 64488
" />
<path d="M91712 64488
L93129 64488
" />
<path d="M69822 67651
L70728 67651
" />
<path d="M70728 67651
L70728 69454
" />
<path d="M70728 69454
L69822 69454
" />
<path d="M69822 69454
L69822 67651
" />
<path d="M68248 69466
L68248 67663
" />
<path d="M69153 69466
L68248 69466
" />
<path d="M69153 67663
L69153 69466
" />
<path d="M68248 67663
L69153 67663
" />
<path d="M72992 67657
L73858 67657
" />
<path d="M72992 69744
L72992 67657
" />
<path d="M73858 69744
L72992 69744
" />
<path d="M73858 67657
L73858 69744
" />
<path d="M94192 67814
L94192 61122
" />
<path d="M95570 67814
L94192 67814
" />
<path d="M95570 61122
L95570 67814
" />
<path d="M94192 61122
L95570 61122
" />
<path d="M66618 60275
L68421 60275
" />
<path d="M66618 61181
L66618 60275
" />
<path d="M68421 61181
L66618 61181
" />
<path d="M68421 60275
L68421 61181
" />
<path d="M79685 72372
L79685 69458
" />
<path d="M76023 72372
L76023 69458
" />
<path d="M76023 69458
L79685 69458
" />
<path d="M76023 72372
L79685 72372
" />
<path d="M82990 69576
L82990 70482
" />
<path d="M82990 70482
L81187 70482
" />
<path d="M81187 70482
L81187 69576
" />
<path d="M81187 69576
L82990 69576
" />
<path d="M65649 65641
L65649 63102
" />
<path d="M63090 65641
L65649 65641
" />
<path d="M63090 63102
L63090 65641
" />
<path d="M65649 63102
L63090 63102
" />
<path d="M67007 72805
L70413 72805
" />
<path d="M70413 72805
L70413 71387
" />
<path d="M70413 71387
L67007 71387
" />
<path d="M67007 71387
L67007 72805
" />
<path d="M84531 71222
L84531 70316
" />
<path d="M84531 70316
L86334 70316
" />
<path d="M86334 70316
L86334 71222
" />
<path d="M86334 71222
L84531 71222
" />
<path d="M92472 72374
L90677 72374
" />
<path d="M92472 71129
L92472 72374
" />
<path d="M90677 71129
L92472 71129
" />
<path d="M90677 72374
L90677 71129
" />
<path d="M74547 69464
L74547 67661
" />
<path d="M75452 69464
L74547 69464
" />
<path d="M75452 67661
L75452 69464
" />
<path d="M74547 67661
L75452 67661
" />
<path d="M31875 69379
L33679 69379
" />
<path d="M31875 70285
L31875 69379
" />
<path d="M33679 70285
L31875 70285
" />
<path d="M33679 69379
L33679 70285
" />
<path d="M16338 62905
L13779 62905
" />
<path d="M13779 62905
L13779 65444
" />
<path d="M13779 65444
L16338 65444
" />
<path d="M16338 65444
L16338 62905
" />
<path d="M17696 71190
L17696 72608
" />
<path d="M21102 71190
L17696 71190
" />
<path d="M21102 72608
L21102 71190
" />
<path d="M17696 72608
L21102 72608
" />
<path d="M37023 71025
L35220 71025
" />
<path d="M37023 70120
L37023 71025
" />
<path d="M35220 70120
L37023 70120
" />
<path d="M35220 71025
L35220 70120
" />
<path d="M41366 72177
L41366 70933
" />
<path d="M41366 70933
L43161 70933
" />
<path d="M43161 70933
L43161 72177
" />
<path d="M43161 72177
L41366 72177
" />
<path d="M25236 67464
L26141 67464
" />
<path d="M26141 67464
L26141 69267
" />
<path d="M26141 69267
L25236 69267
" />
<path d="M25236 69267
L25236 67464
" />
<path d="M42401 64291
L43818 64291
" />
<path d="M42401 61870
L42401 64291
" />
<path d="M43818 61870
L42401 61870
" />
<path d="M43818 64291
L43818 61870
" />
<path d="M20511 69257
L20511 67454
" />
<path d="M21417 69257
L20511 69257
" />
<path d="M21417 67454
L21417 69257
" />
<path d="M20511 67454
L21417 67454
" />
<path d="M18937 67466
L19842 67466
" />
<path d="M19842 67466
L19842 69269
" />
<path d="M19842 69269
L18937 69269
" />
<path d="M18937 69269
L18937 67466
" />
<path d="M24547 67460
L24547 69547
" />
<path d="M24547 69547
L23681 69547
" />
<path d="M23681 69547
L23681 67460
" />
<path d="M23681 67460
L24547 67460
" />
<path d="M44881 60925
L46259 60925
" />
<path d="M46259 60925
L46259 67618
" />
<path d="M46259 67618
L44881 67618
" />
<path d="M44881 67618
L44881 60925
" />
<path d="M19110 60078
L19110 60984
" />
<path d="M19110 60984
L17307 60984
" />
<path d="M17307 60984
L17307 60078
" />
<path d="M17307 60078
L19110 60078
" />
<path d="M37537 69078
L38442 69078
" />
<path d="M38442 69078
L38442 70881
" />
<path d="M38442 70881
L37537 70881
" />
<path d="M37537 70881
L37537 69078
" />
<path d="M16732 66830
L16732 61515
" />
<path d="M16732 61515
L19685 61515
" />
<path d="M19685 61515
L19685 66830
" />
<path d="M19685 66830
L16732 66830
" />
<circle cx="18208.7" cy="64173.2" r="1377.95" /> 
<path d="M37023 68937
L37023 69842
" />
<path d="M37023 69842
L35220 69842
" />
<path d="M35220 69842
L35220 68937
" />
<path d="M35220 68937
L37023 68937
" />
<path d="M22086 69257
L22086 67454
" />
<path d="M22992 69257
L22086 69257
" />
<path d="M22992 67454
L22992 69257
" />
<path d="M22086 67454
L22992 67454
" />
<path d="M26712 72175
L30374 72175
" />
<path d="M26712 69261
L30374 69261
" />
<path d="M26712 72175
L26712 69261
" />
<path d="M30374 72175
L30374 69261
" />
<path d="M40511 70883
L39606 70883
" />
<path d="M39606 70883
L39606 69080
" />
<path d="M39606 69080
L40511 69080
" />
<path d="M40511 69080
L40511 70883
" />
<path d="M90966 40767
L90966 38346
" />
<path d="M90966 38346
L89549 38346
" />
<path d="M89549 38346
L89549 40767
" />
<path d="M89549 40767
L90966 40767
" />
<path d="M67659 43931
L68564 43931
" />
<path d="M68564 43931
L68564 45734
" />
<path d="M68564 45734
L67659 45734
" />
<path d="M67659 45734
L67659 43931
" />
<path d="M66084 45746
L66084 43942
" />
<path d="M66990 45746
L66084 45746
" />
<path d="M66990 43942
L66990 45746
" />
<path d="M66084 43942
L66990 43942
" />
<path d="M70828 43937
L71694 43937
" />
<path d="M70828 46023
L70828 43937
" />
<path d="M71694 46023
L70828 46023
" />
<path d="M71694 43937
L71694 46023
" />
<path d="M92029 44094
L92029 37401
" />
<path d="M93407 44094
L92029 44094
" />
<path d="M93407 37401
L93407 44094
" />
<path d="M92029 37401
L93407 37401
" />
<path d="M64454 36555
L66257 36555
" />
<path d="M64454 37460
L64454 36555
" />
<path d="M66257 37460
L64454 37460
" />
<path d="M66257 36555
L66257 37460
" />
<path d="M84685 47358
L84685 45555
" />
<path d="M85590 47358
L84685 47358
" />
<path d="M85590 45555
L85590 47358
" />
<path d="M84685 45555
L85590 45555
" />
<circle cx="65356.3" cy="40649.6" r="1377.95" /> 
<path d="M66832 43307
L63879 43307
" />
<path d="M66832 37992
L66832 43307
" />
<path d="M63879 37992
L66832 37992
" />
<path d="M63879 43307
L63879 37992
" />
<path d="M82368 45413
L84171 45413
" />
<path d="M82368 46318
L82368 45413
" />
<path d="M84171 46318
L82368 46318
" />
<path d="M84171 45413
L84171 46318
" />
<path d="M69234 43931
L70139 43931
" />
<path d="M70139 43931
L70139 45734
" />
<path d="M70139 45734
L69234 45734
" />
<path d="M69234 45734
L69234 43931
" />
<path d="M64844 49084
L68250 49084
" />
<path d="M68250 49084
L68250 47667
" />
<path d="M68250 47667
L64844 47667
" />
<path d="M64844 47667
L64844 49084
" />
<path d="M82368 47501
L82368 46596
" />
<path d="M82368 46596
L84171 46596
" />
<path d="M84171 46596
L84171 47501
" />
<path d="M84171 47501
L82368 47501
" />
<path d="M90309 48653
L88513 48653
" />
<path d="M90309 47409
L90309 48653
" />
<path d="M88513 47409
L90309 47409
" />
<path d="M88513 48653
L88513 47409
" />
<path d="M72383 45744
L72383 43940
" />
<path d="M73289 45744
L72383 45744
" />
<path d="M73289 43940
L73289 45744
" />
<path d="M72383 43940
L73289 43940
" />
<path d="M77521 48651
L77521 45738
" />
<path d="M73860 48651
L73860 45738
" />
<path d="M73860 45738
L77521 45738
" />
<path d="M73860 48651
L77521 48651
" />
<path d="M87659 45557
L87659 47360
" />
<path d="M86753 45557
L87659 45557
" />
<path d="M86753 47360
L86753 45557
" />
<path d="M87659 47360
L86753 47360
" />
<path d="M80826 45856
L80826 46761
" />
<path d="M80826 46761
L79023 46761
" />
<path d="M79023 46761
L79023 45856
" />
<path d="M79023 45856
L80826 45856
" />
<path d="M63486 41921
L63486 39381
" />
<path d="M60927 41921
L63486 41921
" />
<path d="M60927 39381
L60927 41921
" />
<path d="M63486 39381
L60927 39381
" />
<path d="M23606 43937
L23606 46023
" />
<path d="M23606 46023
L22739 46023
" />
<path d="M22739 46023
L22739 43937
" />
<path d="M22739 43937
L23606 43937
" />
<path d="M40425 48653
L40425 47409
" />
<path d="M40425 47409
L42220 47409
" />
<path d="M42220 47409
L42220 48653
" />
<path d="M42220 48653
L40425 48653
" />
<path d="M24295 43940
L25200 43940
" />
<path d="M25200 43940
L25200 45744
" />
<path d="M25200 45744
L24295 45744
" />
<path d="M24295 45744
L24295 43940
" />
<path d="M25771 48651
L29432 48651
" />
<path d="M25771 45738
L29432 45738
" />
<path d="M25771 48651
L25771 45738
" />
<path d="M29432 48651
L29432 45738
" />
<path d="M43940 37401
L45318 37401
" />
<path d="M45318 37401
L45318 44094
" />
<path d="M45318 44094
L43940 44094
" />
<path d="M43940 44094
L43940 37401
" />
<path d="M18169 36555
L18169 37460
" />
<path d="M18169 37460
L16365 37460
" />
<path d="M16365 37460
L16365 36555
" />
<path d="M16365 36555
L18169 36555
" />
<path d="M36596 45555
L37501 45555
" />
<path d="M37501 45555
L37501 47358
" />
<path d="M37501 47358
L36596 47358
" />
<path d="M36596 47358
L36596 45555
" />
<path d="M15791 43307
L15791 37992
" />
<path d="M15791 37992
L18743 37992
" />
<path d="M18743 37992
L18743 43307
" />
<path d="M18743 43307
L15791 43307
" />
<circle cx="17267.5" cy="40649.6" r="1377.95" /> 
<path d="M36082 45413
L36082 46318
" />
<path d="M36082 46318
L34279 46318
" />
<path d="M34279 46318
L34279 45413
" />
<path d="M34279 45413
L36082 45413
" />
<path d="M41460 40767
L42877 40767
" />
<path d="M41460 38346
L41460 40767
" />
<path d="M42877 38346
L41460 38346
" />
<path d="M42877 40767
L42877 38346
" />
<path d="M19570 45734
L19570 43931
" />
<path d="M20476 45734
L19570 45734
" />
<path d="M20476 43931
L20476 45734
" />
<path d="M19570 43931
L20476 43931
" />
<path d="M17995 43942
L18901 43942
" />
<path d="M18901 43942
L18901 45746
" />
<path d="M18901 45746
L17995 45746
" />
<path d="M17995 45746
L17995 43942
" />
<path d="M15397 39381
L12838 39381
" />
<path d="M12838 39381
L12838 41921
" />
<path d="M12838 41921
L15397 41921
" />
<path d="M15397 41921
L15397 39381
" />
<path d="M16755 47667
L16755 49084
" />
<path d="M20161 47667
L16755 47667
" />
<path d="M20161 49084
L20161 47667
" />
<path d="M16755 49084
L20161 49084
" />
<path d="M36082 47501
L34279 47501
" />
<path d="M36082 46596
L36082 47501
" />
<path d="M34279 46596
L36082 46596
" />
<path d="M34279 47501
L34279 46596
" />
<path d="M21145 45734
L21145 43931
" />
<path d="M22050 45734
L21145 45734
" />
<path d="M22050 43931
L22050 45734
" />
<path d="M21145 43931
L22050 43931
" />
<path d="M39570 47360
L38665 47360
" />
<path d="M38665 47360
L38665 45557
" />
<path d="M38665 45557
L39570 45557
" />
<path d="M39570 45557
L39570 47360
" />
<path d="M30934 45856
L32738 45856
" />
<path d="M30934 46761
L30934 45856
" />
<path d="M32738 46761
L30934 46761
" />
<path d="M32738 45856
L32738 46761
" />
<circle cx="65108.3" cy="16929.1" r="1377.95" /> 
<path d="M66584 19586
L63631 19586
" />
<path d="M66584 14271
L66584 19586
" />
<path d="M63631 14271
L66584 14271
" />
<path d="M63631 19586
L63631 14271
" />
<path d="M65836 22025
L65836 20222
" />
<path d="M66742 22025
L65836 22025
" />
<path d="M66742 20222
L66742 22025
" />
<path d="M65836 20222
L66742 20222
" />
<path d="M67411 20210
L68316 20210
" />
<path d="M68316 20210
L68316 22013
" />
<path d="M68316 22013
L67411 22013
" />
<path d="M67411 22013
L67411 20210
" />
<path d="M80578 22135
L80578 23041
" />
<path d="M80578 23041
L78775 23041
" />
<path d="M78775 23041
L78775 22135
" />
<path d="M78775 22135
L80578 22135
" />
<path d="M82120 21692
L83923 21692
" />
<path d="M82120 22598
L82120 21692
" />
<path d="M83923 22598
L82120 22598
" />
<path d="M83923 21692
L83923 22598
" />
<path d="M70580 20216
L71446 20216
" />
<path d="M70580 22303
L70580 20216
" />
<path d="M71446 22303
L70580 22303
" />
<path d="M71446 20216
L71446 22303
" />
<path d="M87411 21836
L87411 23639
" />
<path d="M86505 21836
L87411 21836
" />
<path d="M86505 23639
L86505 21836
" />
<path d="M87411 23639
L86505 23639
" />
<path d="M68986 20210
L69891 20210
" />
<path d="M69891 20210
L69891 22013
" />
<path d="M69891 22013
L68986 22013
" />
<path d="M68986 22013
L68986 20210
" />
<path d="M63238 18200
L63238 15661
" />
<path d="M60679 18200
L63238 18200
" />
<path d="M60679 15661
L60679 18200
" />
<path d="M63238 15661
L60679 15661
" />
<path d="M82120 23781
L82120 22875
" />
<path d="M82120 22875
L83923 22875
" />
<path d="M83923 22875
L83923 23781
" />
<path d="M83923 23781
L82120 23781
" />
<path d="M84437 23637
L84437 21834
" />
<path d="M85342 23637
L84437 23637
" />
<path d="M85342 21834
L85342 23637
" />
<path d="M84437 21834
L85342 21834
" />
<path d="M91781 20374
L91781 13681
" />
<path d="M93159 20374
L91781 20374
" />
<path d="M93159 13681
L93159 20374
" />
<path d="M91781 13681
L93159 13681
" />
<path d="M64596 25364
L68001 25364
" />
<path d="M68001 25364
L68001 23946
" />
<path d="M68001 23946
L64596 23946
" />
<path d="M64596 23946
L64596 25364
" />
<path d="M90718 17047
L90718 14625
" />
<path d="M90718 14625
L89301 14625
" />
<path d="M89301 14625
L89301 17047
" />
<path d="M89301 17047
L90718 17047
" />
<path d="M90061 24933
L88265 24933
" />
<path d="M90061 23688
L90061 24933
" />
<path d="M88265 23688
L90061 23688
" />
<path d="M88265 24933
L88265 23688
" />
<path d="M77273 24931
L77273 22017
" />
<path d="M73612 24931
L73612 22017
" />
<path d="M73612 22017
L77273 22017
" />
<path d="M73612 24931
L77273 24931
" />
<path d="M72135 22023
L72135 20220
" />
<path d="M73041 22023
L72135 22023
" />
<path d="M73041 20220
L73041 22023
" />
<path d="M72135 20220
L73041 20220
" />
<path d="M64206 12834
L66009 12834
" />
<path d="M64206 13740
L64206 12834
" />
<path d="M66009 13740
L64206 13740
" />
<path d="M66009 12834
L66009 13740
" />
<path d="M36039 23879
L34236 23879
" />
<path d="M36039 22974
L36039 23879
" />
<path d="M34236 22974
L36039 22974
" />
<path d="M34236 23879
L34236 22974
" />
<path d="M15354 15759
L12795 15759
" />
<path d="M12795 15759
L12795 18299
" />
<path d="M12795 18299
L15354 18299
" />
<path d="M15354 18299
L15354 15759
" />
<path d="M15748 19685
L15748 14370
" />
<path d="M15748 14370
L18700 14370
" />
<path d="M18700 14370
L18700 19685
" />
<path d="M18700 19685
L15748 19685
" />
<circle cx="17224.4" cy="17027.6" r="1377.95" /> 
<path d="M40381 25031
L40381 23787
" />
<path d="M40381 23787
L42177 23787
" />
<path d="M42177 23787
L42177 25031
" />
<path d="M42177 25031
L40381 25031
" />
<path d="M41417 17145
L42834 17145
" />
<path d="M41417 14724
L41417 17145
" />
<path d="M42834 14724
L41417 14724
" />
<path d="M42834 17145
L42834 14724
" />
<path d="M16712 24045
L16712 25462
" />
<path d="M20118 24045
L16712 24045
" />
<path d="M20118 25462
L20118 24045
" />
<path d="M16712 25462
L20118 25462
" />
<path d="M43897 13779
L45275 13779
" />
<path d="M45275 13779
L45275 20472
" />
<path d="M45275 20472
L43897 20472
" />
<path d="M43897 20472
L43897 13779
" />
<path d="M36553 21933
L37458 21933
" />
<path d="M37458 21933
L37458 23736
" />
<path d="M37458 23736
L36553 23736
" />
<path d="M36553 23736
L36553 21933
" />
<path d="M21102 22112
L21102 20309
" />
<path d="M22007 22112
L21102 22112
" />
<path d="M22007 20309
L22007 22112
" />
<path d="M21102 20309
L22007 20309
" />
<path d="M39527 23738
L38622 23738
" />
<path d="M38622 23738
L38622 21935
" />
<path d="M38622 21935
L39527 21935
" />
<path d="M39527 21935
L39527 23738
" />
<path d="M23562 20314
L23562 22401
" />
<path d="M23562 22401
L22696 22401
" />
<path d="M22696 22401
L22696 20314
" />
<path d="M22696 20314
L23562 20314
" />
<path d="M36039 21791
L36039 22696
" />
<path d="M36039 22696
L34236 22696
" />
<path d="M34236 22696
L34236 21791
" />
<path d="M34236 21791
L36039 21791
" />
<path d="M30891 22234
L32694 22234
" />
<path d="M30891 23139
L30891 22234
" />
<path d="M32694 23139
L30891 23139
" />
<path d="M32694 22234
L32694 23139
" />
<path d="M19527 22112
L19527 20309
" />
<path d="M20433 22112
L19527 22112
" />
<path d="M20433 20309
L20433 22112
" />
<path d="M19527 20309
L20433 20309
" />
<path d="M17952 20320
L18858 20320
" />
<path d="M18858 20320
L18858 22124
" />
<path d="M18858 22124
L17952 22124
" />
<path d="M17952 22124
L17952 20320
" />
<path d="M18125 12933
L18125 13838
" />
<path d="M18125 13838
L16322 13838
" />
<path d="M16322 13838
L16322 12933
" />
<path d="M16322 12933
L18125 12933
" />
<path d="M24251 20318
L25157 20318
" />
<path d="M25157 20318
L25157 22122
" />
<path d="M25157 22122
L24251 22122
" />
<path d="M24251 22122
L24251 20318
" />
<path d="M25728 25029
L29389 25029
" />
<path d="M25728 22116
L29389 22116
" />
<path d="M25728 25029
L25728 22116
" />
<path d="M29389 25029
L29389 22116
" />
<g >
</g>
<g >
</g>
<g >
</g>
<g >
</g>
<g >
</g>
<g >
</g>
<g >
</g>
<g >
</g>
<g >
</g>
<g >
</g>
<g >
</g>
<g >
</g>
<g >
</g>
<g >
</g>
<g >
</g>
<g >
</g>
<g >
</g>
<g >
</g>
<g >
</g>
<g >
</g>
<g >
</g>
<g >
</g>
<g >
</g>
<g >
</g>
<g >
</g>
<g >
</g>
<g >
</g>
<g >
</g>
<g >
</g>
<g >
</g>
<g >
</g>
<g >
</g>
<g >
</g>
<g >
</g>
<g >
</g>
<g >
</g>
<g >
</g>
<g >
</g>
<g >
</g>
<g >
</g>
<g >
</g>
<g >
</g>
<g >
</g>
<g >
</g>
<g >
</g>
<g >
</g>
<g >
</g>
<g >
</g>
<g >
</g>
<g >
</g>
<g >
</g>
<g >
</g>
<g >
</g>
<g >
</g>
<g >
</g>
<g >
</g>
<g >
</g>
<g >
</g>
<g >
</g>
<g >
</g>
<g >
</g>
<g >
</g>
<g >
</g>
<g >
</g>
<g >
</g>
<g >
</g>
<g >
</g>
<g >
</g>
<g >
</g>
<g >
</g>
<g >
</g>
<g >
</g>
<g >
</g>
<g >
</g>
<g >
</g>
<g >
</g>
<g >
</g>
<g >
</g>
<g >
</g>
<g >
</g>
<g >
</g>
<g >
</g>
<g >
</g>
<g >
</g>
<g >
</g>
<g >
</g>
<g >
</g>
<g >
</g>
<g >
</g>
<g >
</g>
<g >
</g>
<g >
</g>
<g >
</g>
<g >
</g>
<g >
</g>
<g >
</g>
<g >
</g>
<g >
</g>
<g >
</g>
<g >
</g>
<g >
</g>
<g >
</g>
<g >
</g>
<g >
</g>
<g >
</g>
<g >
</g>
<g >
</g>
<g >
</g>
<g >
</g>
<g >
</g>
<g >
</g>
<g >
</g>
<g >
</g>
<g >
</g>
<g >
</g>
<g >
</g>
<g >
</g>
<g >
</g>
<g >
</g>
<g >
</g>
<g >
</g>
</g> 
</svg>
