<?xml version="1.0" standalone="no"?>
 <!DOCTYPE svg PUBLIC "-//W3C//DTD SVG 1.1//EN" 
 "http://www.w3.org/Graphics/SVG/1.1/DTD/svg11.dtd"> 
<svg xmlns="http://www.w3.org/2000/svg" version="1.1" 
    width="27.94cm" height="21.59cm" viewBox="0 0 110000 85000 ">
<title>SVG Picture created as toner-reva-SMD-B_Fab.svg date 2019/11/04 14:40:06 </title>
  <desc>Picture generated by PCBNEW </desc>
<g style="fill:#000000; fill-opacity:1;stroke:#000000; stroke-opacity:1;
stroke-linecap:round; stroke-linejoin:round; "
 transform="translate(0 0) scale(1 1)">
</g>
<g style="fill:#000000; fill-opacity:0.0; 
stroke:#000000; stroke-width:-0.000393701; stroke-opacity:1; 
stroke-linecap:round; stroke-linejoin:round;">
</g>
<g style="fill:#000000; fill-opacity:0.0; 
stroke:#000000; stroke-width:59.0551; stroke-opacity:1; 
stroke-linecap:round; stroke-linejoin:round;">
<path d="M94133 58759
L96456 58759
" />
<path d="M90649 55708
L93208 55708
" />
<path d="M69389 65748
L90649 65748
" />
<circle cx="58070.9" cy="58759.8" r="656.168" /> 
<path d="M57086 58759
L59055 58759
" />
<path d="M58070 57775
L58070 59744
" />
<path d="M90649 65748
L90649 55708
" />
<path d="M96456 69980
L94212 69980
" />
<path d="M93208 70964
L93208 73031
" />
<path d="M61259 69980
L59055 69980
" />
<circle cx="59055.1" cy="70964.6" r="656.168" /> 
<path d="M58070 70964
L60039 70964
" />
<path d="M59055 69980
L59055 71948
" />
<circle cx="97440.9" cy="58759.8" r="656.168" /> 
<path d="M96456 58759
L98425 58759
" />
<path d="M97440 57775
L97440 59744
" />
<circle cx="96456.7" cy="57775.6" r="656.168" /> 
<path d="M95472 57775
L97440 57775
" />
<path d="M96456 56791
L96456 58759
" />
<path d="M93208 57874
L94133 58759
" />
<circle cx="61220.5" cy="55708.7" r="656.168" /> 
<path d="M60236 55708
L62204 55708
" />
<path d="M61220 54724
L61220 56692
" />
<path d="M62204 73031
L62204 70925
" />
<circle cx="62204.7" cy="54724.4" r="656.168" /> 
<path d="M61220 54724
L63188 54724
" />
<path d="M62204 53740
L62204 55708
" />
<circle cx="94192.9" cy="73031.5" r="656.168" /> 
<path d="M93208 73031
L95177 73031
" />
<path d="M94192 72047
L94192 74015
" />
<circle cx="93208.7" cy="74015.7" r="656.168" /> 
<path d="M92224 74015
L94192 74015
" />
<path d="M93208 73031
L93208 75000
" />
<path d="M96456 58759
L96456 69980
" />
<circle cx="61220.5" cy="73031.5" r="656.168" /> 
<path d="M60236 73031
L62204 73031
" />
<path d="M61220 72047
L61220 74015
" />
<path d="M59055 69980
L59055 58759
" />
<circle cx="58070.9" cy="69980.3" r="656.168" /> 
<path d="M57086 69980
L59055 69980
" />
<path d="M58070 68996
L58070 70964
" />
<circle cx="96456.7" cy="70964.6" r="656.168" /> 
<path d="M95472 70964
L97440 70964
" />
<path d="M96456 69980
L96456 71948
" />
<path d="M93208 55708
L93208 57874
" />
<path d="M59055 58759
L61318 58759
" />
<path d="M62204 57874
L62204 55708
" />
<circle cx="97440.9" cy="69980.3" r="656.168" /> 
<path d="M96456 69980
L98425 69980
" />
<path d="M97440 68996
L97440 70964
" />
<circle cx="94192.9" cy="55708.7" r="656.168" /> 
<path d="M93208 55708
L95177 55708
" />
<path d="M94192 54724
L94192 56692
" />
<path d="M69389 55708
L69389 65748
" />
<path d="M61259 69980
L62204 70925
" />
<circle cx="62204.7" cy="74015.7" r="656.168" /> 
<path d="M61220 74015
L63188 74015
" />
<path d="M62204 73031
L62204 75000
" />
<path d="M62204 55708
L69389 55708
" />
<path d="M93208 70964
L94212 69980
" />
<circle cx="93208.7" cy="54724.4" r="656.168" /> 
<path d="M92224 54724
L94192 54724
" />
<path d="M93208 53740
L93208 55708
" />
<path d="M93208 73031
L62204 73031
" />
<path d="M62204 57874
L61318 58759
" />
<circle cx="59055.1" cy="57775.6" r="656.168" /> 
<path d="M58070 57775
L60039 57775
" />
<path d="M59055 56791
L59055 58759
" />
<path d="M43897 55511
L43897 57677
" />
<path d="M9744 58562
L12007 58562
" />
<path d="M12893 57677
L12893 55511
" />
<circle cx="48129.9" cy="69783.5" r="656.168" /> 
<path d="M47145 69783
L49114 69783
" />
<path d="M48129 68799
L48129 70767
" />
<circle cx="44881.9" cy="55511.8" r="656.168" /> 
<path d="M43897 55511
L45866 55511
" />
<path d="M44881 54527
L44881 56496
" />
<path d="M20078 55511
L20078 65551
" />
<path d="M11948 69783
L12893 70728
" />
<circle cx="12893.7" cy="73818.9" r="656.168" /> 
<path d="M11909 73818
L13877 73818
" />
<path d="M12893 72834
L12893 74803
" />
<path d="M12893 55511
L20078 55511
" />
<path d="M43897 70767
L44901 69783
" />
<circle cx="43897.6" cy="54527.6" r="656.168" /> 
<path d="M42913 54527
L44881 54527
" />
<path d="M43897 53543
L43897 55511
" />
<path d="M43897 72834
L12893 72834
" />
<path d="M12893 57677
L12007 58562
" />
<circle cx="9744.09" cy="57578.7" r="656.168" /> 
<path d="M8759 57578
L10728 57578
" />
<path d="M9744 56594
L9744 58562
" />
<circle cx="44881.9" cy="72834.6" r="656.168" /> 
<path d="M43897 72834
L45866 72834
" />
<path d="M44881 71850
L44881 73818
" />
<circle cx="43897.6" cy="73818.9" r="656.168" /> 
<path d="M42913 73818
L44881 73818
" />
<path d="M43897 72834
L43897 74803
" />
<path d="M47145 58562
L47145 69783
" />
<circle cx="11909.4" cy="72834.6" r="656.168" /> 
<path d="M10925 72834
L12893 72834
" />
<path d="M11909 71850
L11909 73818
" />
<path d="M9744 69783
L9744 58562
" />
<path d="M44822 58562
L47145 58562
" />
<path d="M41338 55511
L43897 55511
" />
<path d="M20078 65551
L41338 65551
" />
<circle cx="8759.84" cy="58563" r="656.168" /> 
<path d="M7775 58562
L9744 58562
" />
<path d="M8759 57578
L8759 59547
" />
<path d="M41338 65551
L41338 55511
" />
<path d="M47145 69783
L44901 69783
" />
<path d="M43897 70767
L43897 72834
" />
<path d="M11948 69783
L9744 69783
" />
<circle cx="9744.09" cy="70767.7" r="656.168" /> 
<path d="M8759 70767
L10728 70767
" />
<path d="M9744 69783
L9744 71751
" />
<path d="M43897 57677
L44822 58562
" />
<circle cx="11909.4" cy="55511.8" r="656.168" /> 
<path d="M10925 55511
L12893 55511
" />
<path d="M11909 54527
L11909 56496
" />
<path d="M12893 72834
L12893 70728
" />
<circle cx="47145.7" cy="57578.7" r="656.168" /> 
<path d="M46161 57578
L48129 57578
" />
<path d="M47145 56594
L47145 58562
" />
<circle cx="48129.9" cy="58563" r="656.168" /> 
<path d="M47145 58562
L49114 58562
" />
<path d="M48129 57578
L48129 59547
" />
<circle cx="8759.84" cy="69783.5" r="656.168" /> 
<path d="M7775 69783
L9744 69783
" />
<path d="M8759 68799
L8759 70767
" />
<circle cx="47145.7" cy="70767.7" r="656.168" /> 
<path d="M46161 70767
L48129 70767
" />
<path d="M47145 69783
L47145 71751
" />
<circle cx="12893.7" cy="54527.6" r="656.168" /> 
<path d="M11909 54527
L13877 54527
" />
<path d="M12893 53543
L12893 55511
" />
<circle cx="91045.3" cy="50295.3" r="656.168" /> 
<path d="M90061 50295
L92029 50295
" />
<path d="M91045 49311
L91045 51279
" />
<path d="M94293 35039
L94293 46259
" />
<circle cx="59057.1" cy="49311" r="656.168" /> 
<path d="M58072 49311
L60041 49311
" />
<path d="M59057 48326
L59057 50295
" />
<path d="M56891 46259
L56891 35039
" />
<path d="M91970 35039
L94293 35039
" />
<path d="M88486 31988
L91045 31988
" />
<path d="M67226 42027
L88486 42027
" />
<path d="M94293 46259
L92049 46259
" />
<path d="M91045 47244
L91045 49311
" />
<path d="M59096 46259
L56891 46259
" />
<circle cx="56891.7" cy="47244.1" r="656.168" /> 
<path d="M55907 47244
L57875 47244
" />
<path d="M56891 46259
L56891 48228
" />
<path d="M91045 34153
L91970 35039
" />
<path d="M67226 31988
L67226 42027
" />
<path d="M59096 46259
L60041 47204
" />
<circle cx="60041.3" cy="50295.3" r="656.168" /> 
<path d="M59057 50295
L61025 50295
" />
<path d="M60041 49311
L60041 51279
" />
<path d="M60041 31988
L67226 31988
" />
<path d="M91045 47244
L92049 46259
" />
<path d="M88486 42027
L88486 31988
" />
<path d="M91045 49311
L60041 49311
" />
<circle cx="92029.5" cy="49311" r="656.168" /> 
<path d="M91045 49311
L93013 49311
" />
<path d="M92029 48326
L92029 50295
" />
<path d="M91045 31988
L91045 34153
" />
<path d="M60041 49311
L60041 47204
" />
<circle cx="60041.3" cy="31003.9" r="656.168" /> 
<path d="M59057 31003
L61025 31003
" />
<path d="M60041 30019
L60041 31988
" />
<circle cx="59057.1" cy="31988.2" r="656.168" /> 
<path d="M58072 31988
L60041 31988
" />
<path d="M59057 31003
L59057 32972
" />
<circle cx="55907.5" cy="35039.4" r="656.168" /> 
<path d="M54923 35039
L56891 35039
" />
<path d="M55907 34055
L55907 36023
" />
<circle cx="56891.7" cy="34055.1" r="656.168" /> 
<path d="M55907 34055
L57875 34055
" />
<path d="M56891 33070
L56891 35039
" />
<circle cx="91045.3" cy="31003.9" r="656.168" /> 
<path d="M90061 31003
L92029 31003
" />
<path d="M91045 30019
L91045 31988
" />
<circle cx="92029.5" cy="31988.2" r="656.168" /> 
<path d="M91045 31988
L93013 31988
" />
<path d="M92029 31003
L92029 32972
" />
<circle cx="95277.6" cy="35039.4" r="656.168" /> 
<path d="M94293 35039
L96261 35039
" />
<path d="M95277 34055
L95277 36023
" />
<circle cx="94293.3" cy="34055.1" r="656.168" /> 
<path d="M93309 34055
L95277 34055
" />
<path d="M94293 33070
L94293 35039
" />
<circle cx="95277.6" cy="46259.8" r="656.168" /> 
<path d="M94293 46259
L96261 46259
" />
<path d="M95277 45275
L95277 47244
" />
<circle cx="55907.5" cy="46259.8" r="656.168" /> 
<path d="M54923 46259
L56891 46259
" />
<path d="M55907 45275
L55907 47244
" />
<path d="M56891 35039
L59155 35039
" />
<circle cx="94293.3" cy="47244.1" r="656.168" /> 
<path d="M93309 47244
L95277 47244
" />
<path d="M94293 46259
L94293 48228
" />
<path d="M60041 34153
L59155 35039
" />
<path d="M60041 34153
L60041 31988
" />
<path d="M8802 46259
L8802 35039
" />
<path d="M40397 42027
L40397 31988
" />
<path d="M43881 35039
L46204 35039
" />
<path d="M40397 31988
L42956 31988
" />
<path d="M19137 42027
L40397 42027
" />
<path d="M46204 46259
L43960 46259
" />
<path d="M42956 47244
L42956 49311
" />
<path d="M11007 46259
L8802 46259
" />
<circle cx="8802.97" cy="47244.1" r="656.168" /> 
<path d="M7818 47244
L9787 47244
" />
<path d="M8802 46259
L8802 48228
" />
<circle cx="42956.5" cy="50295.3" r="656.168" /> 
<path d="M41972 50295
L43940 50295
" />
<path d="M42956 49311
L42956 51279
" />
<path d="M46204 35039
L46204 46259
" />
<circle cx="10968.3" cy="49311" r="656.168" /> 
<path d="M9984 49311
L11952 49311
" />
<path d="M10968 48326
L10968 50295
" />
<path d="M42956 49311
L11952 49311
" />
<circle cx="43940.8" cy="49311" r="656.168" /> 
<path d="M42956 49311
L44925 49311
" />
<path d="M43940 48326
L43940 50295
" />
<path d="M42956 31988
L42956 34153
" />
<path d="M11952 49311
L11952 47204
" />
<circle cx="11952.6" cy="31003.9" r="656.168" /> 
<path d="M10968 31003
L12936 31003
" />
<path d="M11952 30019
L11952 31988
" />
<circle cx="10968.3" cy="31988.2" r="656.168" /> 
<path d="M9984 31988
L11952 31988
" />
<path d="M10968 31003
L10968 32972
" />
<circle cx="7818.72" cy="35039.4" r="656.168" /> 
<path d="M6834 35039
L8802 35039
" />
<path d="M7818 34055
L7818 36023
" />
<circle cx="8802.97" cy="34055.1" r="656.168" /> 
<path d="M7818 34055
L9787 34055
" />
<path d="M8802 33070
L8802 35039
" />
<circle cx="42956.5" cy="31003.9" r="656.168" /> 
<path d="M41972 31003
L43940 31003
" />
<path d="M42956 30019
L42956 31988
" />
<circle cx="43940.8" cy="31988.2" r="656.168" /> 
<path d="M42956 31988
L44925 31988
" />
<path d="M43940 31003
L43940 32972
" />
<circle cx="47188.8" cy="35039.4" r="656.168" /> 
<path d="M46204 35039
L48173 35039
" />
<path d="M47188 34055
L47188 36023
" />
<circle cx="46204.5" cy="34055.1" r="656.168" /> 
<path d="M45220 34055
L47188 34055
" />
<path d="M46204 33070
L46204 35039
" />
<circle cx="47188.8" cy="46259.8" r="656.168" /> 
<path d="M46204 46259
L48173 46259
" />
<path d="M47188 45275
L47188 47244
" />
<circle cx="7818.72" cy="46259.8" r="656.168" /> 
<path d="M6834 46259
L8802 46259
" />
<path d="M7818 45275
L7818 47244
" />
<path d="M8802 35039
L11066 35039
" />
<circle cx="46204.5" cy="47244.1" r="656.168" /> 
<path d="M45220 47244
L47188 47244
" />
<path d="M46204 46259
L46204 48228
" />
<path d="M19137 31988
L19137 42027
" />
<path d="M11007 46259
L11952 47204
" />
<circle cx="11952.6" cy="50295.3" r="656.168" /> 
<path d="M10968 50295
L12936 50295
" />
<path d="M11952 49311
L11952 51279
" />
<path d="M11952 31988
L19137 31988
" />
<path d="M42956 47244
L43960 46259
" />
<path d="M42956 34153
L43881 35039
" />
<path d="M11952 34153
L11952 31988
" />
<path d="M11952 34153
L11066 35039
" />
<path d="M59793 10433
L58907 11318
" />
<path d="M90797 23523
L91801 22539
" />
<path d="M90797 10433
L91722 11318
" />
<path d="M58848 22539
L59793 23484
" />
<path d="M59793 8267
L66978 8267
" />
<path d="M66978 8267
L66978 18307
" />
<path d="M66978 18307
L88238 18307
" />
<path d="M88238 18307
L88238 8267
" />
<path d="M88238 8267
L90797 8267
" />
<path d="M90797 8267
L90797 10433
" />
<path d="M91722 11318
L94045 11318
" />
<path d="M94045 11318
L94045 22539
" />
<path d="M94045 22539
L91801 22539
" />
<path d="M90797 23523
L90797 25590
" />
<path d="M90797 25590
L59793 25590
" />
<path d="M59793 25590
L59793 23484
" />
<path d="M58848 22539
L56643 22539
" />
<path d="M56643 22539
L56643 11318
" />
<path d="M56643 11318
L58907 11318
" />
<circle cx="59793.3" cy="7283.46" r="656.168" /> 
<path d="M58809 7283
L60777 7283
" />
<path d="M59793 6299
L59793 8267
" />
<circle cx="58809.1" cy="8267.72" r="656.168" /> 
<path d="M57824 8267
L59793 8267
" />
<path d="M58809 7283
L58809 9251
" />
<circle cx="55659.4" cy="11318.9" r="656.168" /> 
<path d="M54675 11318
L56643 11318
" />
<path d="M55659 10334
L55659 12303
" />
<circle cx="56643.7" cy="10334.6" r="656.168" /> 
<path d="M55659 10334
L57627 10334
" />
<path d="M56643 9350
L56643 11318
" />
<circle cx="90797.2" cy="7283.46" r="656.168" /> 
<path d="M89812 7283
L91781 7283
" />
<path d="M90797 6299
L90797 8267
" />
<circle cx="91781.5" cy="8267.72" r="656.168" /> 
<path d="M90797 8267
L92765 8267
" />
<path d="M91781 7283
L91781 9251
" />
<circle cx="95029.5" cy="11318.9" r="656.168" /> 
<path d="M94045 11318
L96013 11318
" />
<path d="M95029 10334
L95029 12303
" />
<circle cx="94045.3" cy="10334.6" r="656.168" /> 
<path d="M93061 10334
L95029 10334
" />
<path d="M94045 9350
L94045 11318
" />
<circle cx="95029.5" cy="22539.4" r="656.168" /> 
<path d="M94045 22539
L96013 22539
" />
<path d="M95029 21555
L95029 23523
" />
<circle cx="94045.3" cy="23523.6" r="656.168" /> 
<path d="M93061 23523
L95029 23523
" />
<path d="M94045 22539
L94045 24507
" />
<circle cx="91781.5" cy="25590.6" r="656.168" /> 
<path d="M90797 25590
L92765 25590
" />
<path d="M91781 24606
L91781 26574
" />
<circle cx="90797.2" cy="26574.8" r="656.168" /> 
<path d="M89812 26574
L91781 26574
" />
<path d="M90797 25590
L90797 27559
" />
<circle cx="59793.3" cy="26574.8" r="656.168" /> 
<path d="M58809 26574
L60777 26574
" />
<path d="M59793 25590
L59793 27559
" />
<circle cx="58809.1" cy="25590.6" r="656.168" /> 
<path d="M57824 25590
L59793 25590
" />
<path d="M58809 24606
L58809 26574
" />
<circle cx="56643.7" cy="23523.6" r="656.168" /> 
<path d="M55659 23523
L57627 23523
" />
<path d="M56643 22539
L56643 24507
" />
<circle cx="55659.4" cy="22539.4" r="656.168" /> 
<path d="M54675 22539
L56643 22539
" />
<path d="M55659 21555
L55659 23523
" />
<path d="M59793 10433
L59793 8267
" />
<circle cx="7775.59" cy="22637.8" r="656.168" /> 
<path d="M6791 22637
L8759 22637
" />
<path d="M7775 21653
L7775 23622
" />
<circle cx="8759.84" cy="23622" r="656.168" /> 
<path d="M7775 23622
L9744 23622
" />
<path d="M8759 22637
L8759 24606
" />
<circle cx="10925.2" cy="25689" r="656.168" /> 
<path d="M9940 25688
L11909 25688
" />
<path d="M10925 24704
L10925 26673
" />
<circle cx="11909.4" cy="26673.2" r="656.168" /> 
<path d="M10925 26673
L12893 26673
" />
<path d="M11909 25688
L11909 27657
" />
<circle cx="42913.4" cy="26673.2" r="656.168" /> 
<path d="M41929 26673
L43897 26673
" />
<path d="M42913 25688
L42913 27657
" />
<circle cx="43897.6" cy="25689" r="656.168" /> 
<path d="M42913 25688
L44881 25688
" />
<path d="M43897 24704
L43897 26673
" />
<circle cx="46161.4" cy="23622" r="656.168" /> 
<path d="M45177 23622
L47145 23622
" />
<path d="M46161 22637
L46161 24606
" />
<circle cx="47145.7" cy="22637.8" r="656.168" /> 
<path d="M46161 22637
L48129 22637
" />
<path d="M47145 21653
L47145 23622
" />
<circle cx="46161.4" cy="10433.1" r="656.168" /> 
<path d="M45177 10433
L47145 10433
" />
<path d="M46161 9448
L46161 11417
" />
<circle cx="47145.7" cy="11417.3" r="656.168" /> 
<path d="M46161 11417
L48129 11417
" />
<path d="M47145 10433
L47145 12401
" />
<circle cx="43897.6" cy="8366.14" r="656.168" /> 
<path d="M42913 8366
L44881 8366
" />
<path d="M43897 7381
L43897 9350
" />
<circle cx="42913.4" cy="7381.89" r="656.168" /> 
<path d="M41929 7381
L43897 7381
" />
<path d="M42913 6397
L42913 8366
" />
<circle cx="8759.84" cy="10433.1" r="656.168" /> 
<path d="M7775 10433
L9744 10433
" />
<path d="M8759 9448
L8759 11417
" />
<circle cx="7775.59" cy="11417.3" r="656.168" /> 
<path d="M6791 11417
L8759 11417
" />
<path d="M7775 10433
L7775 12401
" />
<circle cx="10925.2" cy="8366.14" r="656.168" /> 
<path d="M9940 8366
L11909 8366
" />
<path d="M10925 7381
L10925 9350
" />
<circle cx="11909.4" cy="7381.89" r="656.168" /> 
<path d="M10925 7381
L12893 7381
" />
<path d="M11909 6397
L11909 8366
" />
<path d="M42913 10531
L43838 11417
" />
<path d="M42913 23622
L43917 22637
" />
<path d="M10964 22637
L11909 23582
" />
<path d="M11909 10531
L11023 11417
" />
<path d="M11909 10531
L11909 8366
" />
<path d="M8759 11417
L11023 11417
" />
<path d="M8759 22637
L8759 11417
" />
<path d="M10964 22637
L8759 22637
" />
<path d="M11909 25688
L11909 23582
" />
<path d="M42913 25688
L11909 25688
" />
<path d="M42913 23622
L42913 25688
" />
<path d="M46161 22637
L43917 22637
" />
<path d="M46161 11417
L46161 22637
" />
<path d="M43838 11417
L46161 11417
" />
<path d="M42913 8366
L42913 10531
" />
<path d="M40354 8366
L42913 8366
" />
<path d="M40354 18405
L40354 8366
" />
<path d="M19094 18405
L40354 18405
" />
<path d="M19094 8366
L19094 18405
" />
<path d="M11909 8366
L19094 8366
" />
</g>
<g style="fill:#000000; fill-opacity:0.0; 
stroke:#000000; stroke-width:39.3701; stroke-opacity:1; 
stroke-linecap:round; stroke-linejoin:round;">
<path d="M92420 66791
L92735 66338
" />
<path d="M92420 66791
L92125 66338
" />
<path d="M92125 66338
L92735 66338
" />
<path d="M92735 66791
L92105 66791
" />
<path d="M92420 66338
L92420 65945
" />
<path d="M92420 66791
L92420 67146
" />
<path d="M93011 65629
L93011 67440
" />
<path d="M93011 65629
L91830 65629
" />
<path d="M91830 67440
L93011 67440
" />
<path d="M91830 65629
L91830 67440
" />
<path d="M67106 59980
L67736 59980
" />
<path d="M67736 59980
L67736 58720
" />
<path d="M67736 58720
L67106 58720
" />
<path d="M67106 58720
L67106 59980
" />
<path d="M42519 65433
L42519 67244
" />
<path d="M42519 67244
L43700 67244
" />
<path d="M43700 65433
L42519 65433
" />
<path d="M43700 65433
L43700 67244
" />
<path d="M43109 66594
L43109 66949
" />
<path d="M43109 66141
L43109 65748
" />
<path d="M43424 66594
L42794 66594
" />
<path d="M42814 66141
L43424 66141
" />
<path d="M43109 66594
L42814 66141
" />
<path d="M43109 66594
L43424 66141
" />
<path d="M17795 58523
L17795 59783
" />
<path d="M18425 58523
L17795 58523
" />
<path d="M18425 59783
L18425 58523
" />
<path d="M17795 59783
L18425 59783
" />
<path d="M64942 36259
L65572 36259
" />
<path d="M65572 36259
L65572 35000
" />
<path d="M65572 35000
L64942 35000
" />
<path d="M64942 35000
L64942 36259
" />
<path d="M90257 43070
L90572 42617
" />
<path d="M90257 43070
L89962 42617
" />
<path d="M89962 42617
L90572 42617
" />
<path d="M90572 43070
L89942 43070
" />
<path d="M90257 42617
L90257 42224
" />
<path d="M90257 43070
L90257 43425
" />
<path d="M90848 41909
L90848 43720
" />
<path d="M90848 41909
L89667 41909
" />
<path d="M89667 43720
L90848 43720
" />
<path d="M89667 41909
L89667 43720
" />
<path d="M41578 41909
L41578 43720
" />
<path d="M41578 43720
L42759 43720
" />
<path d="M42759 41909
L41578 41909
" />
<path d="M42759 41909
L42759 43720
" />
<path d="M42168 43070
L42168 43425
" />
<path d="M42168 42617
L42168 42224
" />
<path d="M42483 43070
L41853 43070
" />
<path d="M41873 42617
L42483 42617
" />
<path d="M42168 43070
L41873 42617
" />
<path d="M42168 43070
L42483 42617
" />
<path d="M16854 35000
L16854 36259
" />
<path d="M17484 35000
L16854 35000
" />
<path d="M17484 36259
L17484 35000
" />
<path d="M16854 36259
L17484 36259
" />
<path d="M90009 19350
L90324 18897
" />
<path d="M90009 19350
L89714 18897
" />
<path d="M89714 18897
L90324 18897
" />
<path d="M90324 19350
L89694 19350
" />
<path d="M90009 18897
L90009 18504
" />
<path d="M90009 19350
L90009 19705
" />
<path d="M90600 18188
L90600 20000
" />
<path d="M90600 18188
L89419 18188
" />
<path d="M89419 20000
L90600 20000
" />
<path d="M89419 18188
L89419 20000
" />
<path d="M64694 12539
L65324 12539
" />
<path d="M65324 12539
L65324 11279
" />
<path d="M65324 11279
L64694 11279
" />
<path d="M64694 11279
L64694 12539
" />
<path d="M41535 18287
L41535 20098
" />
<path d="M41535 20098
L42716 20098
" />
<path d="M42716 18287
L41535 18287
" />
<path d="M42716 18287
L42716 20098
" />
<path d="M42125 19448
L42125 19803
" />
<path d="M42125 18995
L42125 18602
" />
<path d="M42440 19448
L41810 19448
" />
<path d="M41830 18995
L42440 18995
" />
<path d="M42125 19448
L41830 18995
" />
<path d="M42125 19448
L42440 18995
" />
<path d="M16811 11377
L16811 12637
" />
<path d="M17440 11377
L16811 11377
" />
<path d="M17440 12637
L17440 11377
" />
<path d="M16811 12637
L17440 12637
" />
<g >
</g>
<g >
</g>
<g >
</g>
<g >
</g>
<g >
</g>
<g >
</g>
<g >
</g>
<g >
</g>
<g >
</g>
<g >
</g>
<g >
</g>
<g >
</g>
<g >
</g>
<g >
</g>
<g >
</g>
<g >
</g>
<g >
</g>
<g >
</g>
<g >
</g>
<g >
</g>
<g >
</g>
<g >
</g>
<g >
</g>
<g >
</g>
<g >
</g>
<g >
</g>
<g >
</g>
<g >
</g>
<g >
</g>
<g >
</g>
<g >
</g>
<g >
</g>
<g >
</g>
<g >
</g>
<g >
</g>
<g >
</g>
<g >
</g>
<g >
</g>
<g >
</g>
<g >
</g>
<g >
</g>
<g >
</g>
<g >
</g>
<g >
</g>
<g >
</g>
<g >
</g>
<g >
</g>
<g >
</g>
<g >
</g>
<g >
</g>
<g >
</g>
<g >
</g>
<g >
</g>
<g >
</g>
<g >
</g>
<g >
</g>
<g >
</g>
<g >
</g>
<g >
</g>
<g >
</g>
<g >
</g>
<g >
</g>
<g >
</g>
<g >
</g>
<g >
</g>
<g >
</g>
<g >
</g>
<g >
</g>
<g >
</g>
<g >
</g>
<g >
</g>
<g >
</g>
<g >
</g>
<g >
</g>
<g >
</g>
<g >
</g>
<g >
</g>
<g >
</g>
<g >
</g>
<g >
</g>
<g >
</g>
<g >
</g>
<g >
</g>
<g >
</g>
<g >
</g>
<g >
</g>
<g >
</g>
<g >
</g>
<g >
</g>
<g >
</g>
<g >
</g>
<g >
</g>
<g >
</g>
<g >
</g>
<g >
</g>
<g >
</g>
<g >
</g>
<g >
</g>
<g >
</g>
<g >
</g>
<g >
</g>
<g >
</g>
<g >
</g>
<g >
</g>
<g >
</g>
<g >
</g>
<g >
</g>
<g >
</g>
<g >
</g>
<g >
</g>
<g >
</g>
<g >
</g>
<g >
</g>
<g >
</g>
<g >
</g>
<g >
</g>
<g >
</g>
<g >
</g>
<g >
</g>
<g >
</g>
</g>
<g style="fill:#000000; fill-opacity:0.0; 
stroke:#000000; stroke-width:39.3701; stroke-opacity:1; 
stroke-linecap:round; stroke-linejoin:round;">
</g>
<g style="fill:#000000; fill-opacity:0.0; 
stroke:#000000; stroke-width:59.0551; stroke-opacity:1; 
stroke-linecap:round; stroke-linejoin:round;">
<text x="91043.3" y="67519.7"
textLength="-1130.76" font-size="-524.934" lengthAdjust="spacingAndGlyphs"
text-anchor="middle" opacity="0">S1M</text>
<g class="stroked-text"><desc>S1M</desc>
<path d="M91568 67482
L91511 67500
L91418 67500
L91380 67482
L91362 67463
L91343 67425
L91343 67388
L91362 67350
L91380 67332
L91418 67313
L91493 67294
L91530 67275
L91549 67257
L91568 67219
L91568 67182
L91549 67144
L91530 67125
L91493 67107
L91399 67107
L91343 67125
" />
<path d="M90968 67500
L91193 67500
" />
<path d="M91080 67500
L91080 67107
L91118 67163
L91155 67200
L91193 67219
" />
<path d="M90799 67500
L90799 67107
L90668 67388
L90537 67107
L90537 67500
" />
</g><text x="91240.2" y="66732.3"
textLength="-691.882" font-size="-524.934" lengthAdjust="spacingAndGlyphs"
text-anchor="middle" opacity="0">D1</text>
<g class="stroked-text"><desc>D1</desc>
<path d="M91530 66713
L91530 66319
L91437 66319
L91380 66338
L91343 66376
L91324 66413
L91305 66488
L91305 66544
L91324 66619
L91343 66657
L91380 66694
L91437 66713
L91530 66713
" />
<path d="M90930 66713
L91155 66713
" />
<path d="M91043 66713
L91043 66319
L91080 66376
L91118 66413
L91155 66432
" />
</g><text x="66338.6" y="59547.2"
textLength="-1066.84" font-size="-524.934" lengthAdjust="spacingAndGlyphs"
text-anchor="middle" opacity="0">27K</text>
<g class="stroked-text"><desc>27K</desc>
<path d="M66835 59172
L66816 59153
L66779 59134
L66685 59134
L66647 59153
L66629 59172
L66610 59209
L66610 59247
L66629 59303
L66854 59528
L66610 59528
" />
<path d="M66479 59134
L66216 59134
L66385 59528
" />
<path d="M66066 59528
L66066 59134
" />
<path d="M65841 59528
L66010 59303
" />
<path d="M65841 59134
L66066 59359
" />
</g></g>
<g style="fill:#000000; fill-opacity:0.0; 
stroke:#000000; stroke-width:47.2441; stroke-opacity:1; 
stroke-linecap:round; stroke-linejoin:round;">
<g transform="rotate(-90 67421.3 59350.4)">
<text x="67421.3" y="59507.9"
textLength="-538.152" font-size="-419.947" lengthAdjust="spacingAndGlyphs"
text-anchor="middle" opacity="0">R7</text>
</g>
<g class="stroked-text"><desc>R7</desc>
<path d="M67563 59297
L67413 59192
" />
<path d="M67563 59117
L67248 59117
L67248 59237
L67263 59267
L67278 59282
L67308 59297
L67353 59297
L67383 59282
L67398 59267
L67413 59237
L67413 59117
" />
<path d="M67248 59402
L67248 59612
L67563 59477
" />
</g></g>
<g style="fill:#000000; fill-opacity:0.0; 
stroke:#000000; stroke-width:59.0551; stroke-opacity:1; 
stroke-linecap:round; stroke-linejoin:round;">
<text x="41732.3" y="67322.8"
textLength="-1138.43" font-size="-524.934" lengthAdjust="spacingAndGlyphs"
text-anchor="middle" opacity="0">S1M</text>
<g class="stroked-text"><desc>S1M</desc>
<path d="M42257 67285
L42200 67304
L42107 67304
L42069 67285
L42050 67266
L42032 67229
L42032 67191
L42050 67154
L42069 67135
L42107 67116
L42182 67097
L42219 67079
L42238 67060
L42257 67022
L42257 66985
L42238 66947
L42219 66929
L42182 66910
L42088 66910
L42032 66929
" />
<path d="M41657 67304
L41882 67304
" />
<path d="M41769 67304
L41769 66910
L41807 66966
L41844 67004
L41882 67022
" />
<path d="M41488 67304
L41488 66910
L41357 67191
L41226 66910
L41226 67304
" />
</g><text x="41929.1" y="66535.4"
textLength="-691.882" font-size="-524.934" lengthAdjust="spacingAndGlyphs"
text-anchor="middle" opacity="0">D1</text>
<g class="stroked-text"><desc>D1</desc>
<path d="M42219 66516
L42219 66122
L42125 66122
L42069 66141
L42032 66179
L42013 66216
L41994 66291
L41994 66347
L42013 66422
L42032 66460
L42069 66497
L42125 66516
L42219 66516
" />
<path d="M41619 66516
L41844 66516
" />
<path d="M41732 66516
L41732 66122
L41769 66179
L41807 66216
L41844 66235
" />
</g><text x="17027.6" y="59350.4"
textLength="-1066.84" font-size="-524.934" lengthAdjust="spacingAndGlyphs"
text-anchor="middle" opacity="0">27K</text>
<g class="stroked-text"><desc>27K</desc>
<path d="M17524 58975
L17505 58956
L17468 58937
L17374 58937
L17336 58956
L17318 58975
L17299 59012
L17299 59050
L17318 59106
L17543 59331
L17299 59331
" />
<path d="M17168 58937
L16905 58937
L17074 59331
" />
<path d="M16755 59331
L16755 58937
" />
<path d="M16530 59331
L16699 59106
" />
<path d="M16530 58937
L16755 59162
" />
</g></g>
<g style="fill:#000000; fill-opacity:0.0; 
stroke:#000000; stroke-width:47.2441; stroke-opacity:1; 
stroke-linecap:round; stroke-linejoin:round;">
<g transform="rotate(-90 18110.2 59153.5)">
<text x="18110.2" y="59311"
textLength="-538.152" font-size="-419.947" lengthAdjust="spacingAndGlyphs"
text-anchor="middle" opacity="0">R7</text>
</g>
<g class="stroked-text"><desc>R7</desc>
<path d="M18252 59101
L18102 58996
" />
<path d="M18252 58921
L17937 58921
L17937 59041
L17952 59071
L17967 59086
L17997 59101
L18042 59101
L18072 59086
L18087 59071
L18102 59041
L18102 58921
" />
<path d="M17937 59206
L17937 59416
L18252 59281
" />
</g></g>
<g style="fill:#000000; fill-opacity:0.0; 
stroke:#000000; stroke-width:59.0551; stroke-opacity:1; 
stroke-linecap:round; stroke-linejoin:round;">
<text x="64175.2" y="35826.8"
textLength="-1082.19" font-size="-524.934" lengthAdjust="spacingAndGlyphs"
text-anchor="middle" opacity="0">27K</text>
<g class="stroked-text"><desc>27K</desc>
<path d="M64672 35451
L64653 35433
L64615 35414
L64522 35414
L64484 35433
L64465 35451
L64447 35489
L64447 35526
L64465 35583
L64690 35808
L64447 35808
" />
<path d="M64315 35414
L64053 35414
L64222 35808
" />
<path d="M63903 35808
L63903 35414
" />
<path d="M63678 35808
L63847 35583
" />
<path d="M63678 35414
L63903 35639
" />
</g></g>
<g style="fill:#000000; fill-opacity:0.0; 
stroke:#000000; stroke-width:47.2441; stroke-opacity:1; 
stroke-linecap:round; stroke-linejoin:round;">
<g transform="rotate(-90 65257.9 35629.9)">
<text x="65257.9" y="35787.4"
textLength="-538.152" font-size="-419.947" lengthAdjust="spacingAndGlyphs"
text-anchor="middle" opacity="0">R7</text>
</g>
<g class="stroked-text"><desc>R7</desc>
<path d="M65400 35577
L65250 35472
" />
<path d="M65400 35397
L65085 35397
L65085 35517
L65100 35547
L65115 35562
L65145 35577
L65190 35577
L65220 35562
L65235 35547
L65250 35517
L65250 35397
" />
<path d="M65085 35682
L65085 35892
L65400 35757
" />
</g></g>
<g style="fill:#000000; fill-opacity:0.0; 
stroke:#000000; stroke-width:59.0551; stroke-opacity:1; 
stroke-linecap:round; stroke-linejoin:round;">
<text x="88879.9" y="43799.2"
textLength="-1138.43" font-size="-524.934" lengthAdjust="spacingAndGlyphs"
text-anchor="middle" opacity="0">S1M</text>
<g class="stroked-text"><desc>S1M</desc>
<path d="M89404 43761
L89348 43780
L89254 43780
L89217 43761
L89198 43742
L89179 43705
L89179 43667
L89198 43630
L89217 43611
L89254 43592
L89329 43574
L89367 43555
L89386 43536
L89404 43499
L89404 43461
L89386 43424
L89367 43405
L89329 43386
L89236 43386
L89179 43405
" />
<path d="M88804 43780
L89029 43780
" />
<path d="M88917 43780
L88917 43386
L88954 43443
L88992 43480
L89029 43499
" />
<path d="M88636 43780
L88636 43386
L88504 43667
L88373 43386
L88373 43780
" />
</g><text x="89076.8" y="43011.8"
textLength="-691.882" font-size="-524.934" lengthAdjust="spacingAndGlyphs"
text-anchor="middle" opacity="0">D1</text>
<g class="stroked-text"><desc>D1</desc>
<path d="M89367 42993
L89367 42599
L89273 42599
L89217 42618
L89179 42655
L89161 42693
L89142 42768
L89142 42824
L89161 42899
L89179 42936
L89217 42974
L89273 42993
L89367 42993
" />
<path d="M88767 42993
L88992 42993
" />
<path d="M88879 42993
L88879 42599
L88917 42655
L88954 42693
L88992 42711
" />
</g><text x="40791.2" y="43799.2"
textLength="-1123.08" font-size="-524.934" lengthAdjust="spacingAndGlyphs"
text-anchor="middle" opacity="0">S1M</text>
<g class="stroked-text"><desc>S1M</desc>
<path d="M41316 43761
L41259 43780
L41166 43780
L41128 43761
L41109 43742
L41091 43705
L41091 43667
L41109 43630
L41128 43611
L41166 43592
L41241 43574
L41278 43555
L41297 43536
L41316 43499
L41316 43461
L41297 43424
L41278 43405
L41241 43386
L41147 43386
L41091 43405
" />
<path d="M40716 43780
L40941 43780
" />
<path d="M40828 43780
L40828 43386
L40866 43443
L40903 43480
L40941 43499
" />
<path d="M40547 43780
L40547 43386
L40416 43667
L40284 43386
L40284 43780
" />
</g><text x="40988" y="43011.8"
textLength="-691.882" font-size="-524.934" lengthAdjust="spacingAndGlyphs"
text-anchor="middle" opacity="0">D1</text>
<g class="stroked-text"><desc>D1</desc>
<path d="M41278 42993
L41278 42599
L41184 42599
L41128 42618
L41091 42655
L41072 42693
L41053 42768
L41053 42824
L41072 42899
L41091 42936
L41128 42974
L41184 42993
L41278 42993
" />
<path d="M40678 42993
L40903 42993
" />
<path d="M40791 42993
L40791 42599
L40828 42655
L40866 42693
L40903 42711
" />
</g><text x="16086.4" y="35826.8"
textLength="-1066.84" font-size="-524.934" lengthAdjust="spacingAndGlyphs"
text-anchor="middle" opacity="0">27K</text>
<g class="stroked-text"><desc>27K</desc>
<path d="M16583 35451
L16564 35433
L16527 35414
L16433 35414
L16395 35433
L16377 35451
L16358 35489
L16358 35526
L16377 35583
L16601 35808
L16358 35808
" />
<path d="M16227 35414
L15964 35414
L16133 35808
" />
<path d="M15814 35808
L15814 35414
" />
<path d="M15589 35808
L15758 35583
" />
<path d="M15589 35414
L15814 35639
" />
</g></g>
<g style="fill:#000000; fill-opacity:0.0; 
stroke:#000000; stroke-width:47.2441; stroke-opacity:1; 
stroke-linecap:round; stroke-linejoin:round;">
<g transform="rotate(-90 17169.1 35629.9)">
<text x="17169.1" y="35787.4"
textLength="-538.152" font-size="-419.947" lengthAdjust="spacingAndGlyphs"
text-anchor="middle" opacity="0">R7</text>
</g>
<g class="stroked-text"><desc>R7</desc>
<path d="M17311 35577
L17161 35472
" />
<path d="M17311 35397
L16996 35397
L16996 35517
L17011 35547
L17026 35562
L17056 35577
L17101 35577
L17131 35562
L17146 35547
L17161 35517
L17161 35397
" />
<path d="M16996 35682
L16996 35892
L17311 35757
" />
</g></g>
<g style="fill:#000000; fill-opacity:0.0; 
stroke:#000000; stroke-width:59.0551; stroke-opacity:1; 
stroke-linecap:round; stroke-linejoin:round;">
<text x="88631.9" y="20078.7"
textLength="-1138.43" font-size="-524.934" lengthAdjust="spacingAndGlyphs"
text-anchor="middle" opacity="0">S1M</text>
<g class="stroked-text"><desc>S1M</desc>
<path d="M89156 20041
L89100 20059
L89006 20059
L88969 20041
L88950 20022
L88931 19985
L88931 19947
L88950 19910
L88969 19891
L89006 19872
L89081 19853
L89119 19835
L89138 19816
L89156 19778
L89156 19741
L89138 19703
L89119 19685
L89081 19666
L88988 19666
L88931 19685
" />
<path d="M88556 20059
L88781 20059
" />
<path d="M88669 20059
L88669 19666
L88706 19722
L88744 19760
L88781 19778
" />
<path d="M88388 20059
L88388 19666
L88256 19947
L88125 19666
L88125 20059
" />
</g><text x="88828.7" y="19291.3"
textLength="-691.882" font-size="-524.934" lengthAdjust="spacingAndGlyphs"
text-anchor="middle" opacity="0">D1</text>
<g class="stroked-text"><desc>D1</desc>
<path d="M89119 19272
L89119 18878
L89025 18878
L88969 18897
L88931 18935
L88913 18972
L88894 19047
L88894 19103
L88913 19178
L88931 19216
L88969 19253
L89025 19272
L89119 19272
" />
<path d="M88519 19272
L88744 19272
" />
<path d="M88631 19272
L88631 18878
L88669 18935
L88706 18972
L88744 18991
" />
</g><text x="63927.2" y="12106.3"
textLength="-1066.84" font-size="-524.934" lengthAdjust="spacingAndGlyphs"
text-anchor="middle" opacity="0">27K</text>
<g class="stroked-text"><desc>27K</desc>
<path d="M64423 11731
L64405 11712
L64367 11693
L64273 11693
L64236 11712
L64217 11731
L64199 11768
L64199 11806
L64217 11862
L64442 12087
L64199 12087
" />
<path d="M64067 11693
L63805 11693
L63974 12087
" />
<path d="M63655 12087
L63655 11693
" />
<path d="M63430 12087
L63599 11862
" />
<path d="M63430 11693
L63655 11918
" />
</g></g>
<g style="fill:#000000; fill-opacity:0.0; 
stroke:#000000; stroke-width:47.2441; stroke-opacity:1; 
stroke-linecap:round; stroke-linejoin:round;">
<g transform="rotate(-90 65009.8 11909.4)">
<text x="65009.8" y="12066.9"
textLength="-538.152" font-size="-419.947" lengthAdjust="spacingAndGlyphs"
text-anchor="middle" opacity="0">R7</text>
</g>
<g class="stroked-text"><desc>R7</desc>
<path d="M65152 11856
L65002 11751
" />
<path d="M65152 11676
L64837 11676
L64837 11796
L64852 11826
L64867 11841
L64897 11856
L64942 11856
L64972 11841
L64987 11826
L65002 11796
L65002 11676
" />
<path d="M64837 11961
L64837 12171
L65152 12036
" />
</g></g>
<g style="fill:#000000; fill-opacity:0.0; 
stroke:#000000; stroke-width:59.0551; stroke-opacity:1; 
stroke-linecap:round; stroke-linejoin:round;">
<text x="40748" y="20177.2"
textLength="-1138.43" font-size="-524.934" lengthAdjust="spacingAndGlyphs"
text-anchor="middle" opacity="0">S1M</text>
<g class="stroked-text"><desc>S1M</desc>
<path d="M41272 20139
L41216 20158
L41122 20158
L41085 20139
L41066 20120
L41047 20083
L41047 20045
L41066 20008
L41085 19989
L41122 19970
L41197 19952
L41235 19933
L41254 19914
L41272 19877
L41272 19839
L41254 19802
L41235 19783
L41197 19764
L41104 19764
L41047 19783
" />
<path d="M40673 20158
L40898 20158
" />
<path d="M40785 20158
L40785 19764
L40823 19820
L40860 19858
L40898 19877
" />
<path d="M40504 20158
L40504 19764
L40373 20045
L40241 19764
L40241 20158
" />
</g><text x="40944.9" y="19389.8"
textLength="-691.882" font-size="-524.934" lengthAdjust="spacingAndGlyphs"
text-anchor="middle" opacity="0">D1</text>
<g class="stroked-text"><desc>D1</desc>
<path d="M41235 19371
L41235 18977
L41141 18977
L41085 18996
L41047 19033
L41029 19071
L41010 19146
L41010 19202
L41029 19277
L41047 19314
L41085 19352
L41141 19371
L41235 19371
" />
<path d="M40635 19371
L40860 19371
" />
<path d="M40748 19371
L40748 18977
L40785 19033
L40823 19071
L40860 19089
" />
</g><text x="16043.3" y="12204.7"
textLength="-1066.84" font-size="-524.934" lengthAdjust="spacingAndGlyphs"
text-anchor="middle" opacity="0">27K</text>
<g class="stroked-text"><desc>27K</desc>
<path d="M16540 11829
L16521 11811
L16483 11792
L16390 11792
L16352 11811
L16333 11829
L16315 11867
L16315 11904
L16333 11961
L16558 12185
L16315 12185
" />
<path d="M16183 11792
L15921 11792
L16090 12185
" />
<path d="M15771 12185
L15771 11792
" />
<path d="M15546 12185
L15715 11961
" />
<path d="M15546 11792
L15771 12017
" />
</g></g>
<g style="fill:#000000; fill-opacity:0.0; 
stroke:#000000; stroke-width:47.2441; stroke-opacity:1; 
stroke-linecap:round; stroke-linejoin:round;">
<g transform="rotate(-90 17126 12007.9)">
<text x="17126" y="12165.4"
textLength="-538.152" font-size="-419.947" lengthAdjust="spacingAndGlyphs"
text-anchor="middle" opacity="0">R7</text>
</g>
<g class="stroked-text"><desc>R7</desc>
<path d="M17268 11955
L17118 11850
" />
<path d="M17268 11775
L16953 11775
L16953 11895
L16968 11925
L16983 11940
L17013 11955
L17058 11955
L17088 11940
L17103 11925
L17118 11895
L17118 11775
" />
<path d="M16953 12060
L16953 12270
L17268 12135
" />
</g><g >
</g>
</g> 
</svg>
