<?xml version="1.0" standalone="no"?>
 <!DOCTYPE svg PUBLIC "-//W3C//DTD SVG 1.1//EN" 
 "http://www.w3.org/Graphics/SVG/1.1/DTD/svg11.dtd"> 
<svg xmlns="http://www.w3.org/2000/svg" version="1.1" 
    width="27.94cm" height="21.59cm" viewBox="0 0 110000 85000 ">
<title>SVG Picture created as toner-reva-SMD-Edge_Cuts.svg date 2019/11/04 14:40:21 </title>
  <desc>Picture generated by PCBNEW </desc>
<g style="fill:#000000; fill-opacity:1;stroke:#000000; stroke-opacity:1;
stroke-linecap:round; stroke-linejoin:round; "
 transform="translate(0 0) scale(1 1)">
</g>
<g style="fill:#000000; fill-opacity:0.0; 
stroke:#000000; stroke-width:-0.000393701; stroke-opacity:1; 
stroke-linecap:round; stroke-linejoin:round;">
</g>
<g style="fill:#000000; fill-opacity:0.0; 
stroke:#000000; stroke-width:59.0551; stroke-opacity:1; 
stroke-linecap:round; stroke-linejoin:round;">
<path d="M15866 58759
L13543 58759
" />
<path d="M19350 55708
L16791 55708
" />
<path d="M40610 65748
L19350 65748
" />
<circle cx="51929.1" cy="58759.8" r="656.168" /> 
<path d="M52913 58759
L50944 58759
" />
<path d="M51929 57775
L51929 59744
" />
<path d="M19350 65748
L19350 55708
" />
<path d="M13543 69980
L15787 69980
" />
<path d="M16791 70964
L16791 73031
" />
<path d="M48740 69980
L50944 69980
" />
<circle cx="50944.9" cy="70964.6" r="656.168" /> 
<path d="M51929 70964
L49960 70964
" />
<path d="M50944 69980
L50944 71948
" />
<circle cx="12559.1" cy="58759.8" r="656.168" /> 
<path d="M13543 58759
L11574 58759
" />
<path d="M12559 57775
L12559 59744
" />
<circle cx="13543.3" cy="57775.6" r="656.168" /> 
<path d="M14527 57775
L12559 57775
" />
<path d="M13543 56791
L13543 58759
" />
<path d="M16791 57874
L15866 58759
" />
<circle cx="48779.5" cy="55708.7" r="656.168" /> 
<path d="M49763 55708
L47795 55708
" />
<path d="M48779 54724
L48779 56692
" />
<path d="M47795 73031
L47795 70925
" />
<circle cx="47795.3" cy="54724.4" r="656.168" /> 
<path d="M48779 54724
L46811 54724
" />
<path d="M47795 53740
L47795 55708
" />
<circle cx="15807.1" cy="73031.5" r="656.168" /> 
<path d="M16791 73031
L14822 73031
" />
<path d="M15807 72047
L15807 74015
" />
<circle cx="16791.3" cy="74015.7" r="656.168" /> 
<path d="M17775 74015
L15807 74015
" />
<path d="M16791 73031
L16791 75000
" />
<path d="M13543 58759
L13543 69980
" />
<circle cx="48779.5" cy="73031.5" r="656.168" /> 
<path d="M49763 73031
L47795 73031
" />
<path d="M48779 72047
L48779 74015
" />
<path d="M50944 69980
L50944 58759
" />
<circle cx="51929.1" cy="69980.3" r="656.168" /> 
<path d="M52913 69980
L50944 69980
" />
<path d="M51929 68996
L51929 70964
" />
<circle cx="13543.3" cy="70964.6" r="656.168" /> 
<path d="M14527 70964
L12559 70964
" />
<path d="M13543 69980
L13543 71948
" />
<path d="M16791 55708
L16791 57874
" />
<path d="M50944 58759
L48681 58759
" />
<path d="M47795 57874
L47795 55708
" />
<circle cx="12559.1" cy="69980.3" r="656.168" /> 
<path d="M13543 69980
L11574 69980
" />
<path d="M12559 68996
L12559 70964
" />
<circle cx="15807.1" cy="55708.7" r="656.168" /> 
<path d="M16791 55708
L14822 55708
" />
<path d="M15807 54724
L15807 56692
" />
<path d="M40610 55708
L40610 65748
" />
<path d="M48740 69980
L47795 70925
" />
<circle cx="47795.3" cy="74015.7" r="656.168" /> 
<path d="M48779 74015
L46811 74015
" />
<path d="M47795 73031
L47795 75000
" />
<path d="M47795 55708
L40610 55708
" />
<path d="M16791 70964
L15787 69980
" />
<circle cx="16791.3" cy="54724.4" r="656.168" /> 
<path d="M17775 54724
L15807 54724
" />
<path d="M16791 53740
L16791 55708
" />
<path d="M16791 73031
L47795 73031
" />
<path d="M47795 57874
L48681 58759
" />
<circle cx="50944.9" cy="57775.6" r="656.168" /> 
<path d="M51929 57775
L49960 57775
" />
<path d="M50944 56791
L50944 58759
" />
<path d="M66102 55511
L66102 57677
" />
<path d="M100255 58562
L97992 58562
" />
<path d="M97106 57677
L97106 55511
" />
<circle cx="61870.1" cy="69783.5" r="656.168" /> 
<path d="M62854 69783
L60885 69783
" />
<path d="M61870 68799
L61870 70767
" />
<circle cx="65118.1" cy="55511.8" r="656.168" /> 
<path d="M66102 55511
L64133 55511
" />
<path d="M65118 54527
L65118 56496
" />
<path d="M89921 55511
L89921 65551
" />
<path d="M98051 69783
L97106 70728
" />
<circle cx="97106.3" cy="73818.9" r="656.168" /> 
<path d="M98090 73818
L96122 73818
" />
<path d="M97106 72834
L97106 74803
" />
<path d="M97106 55511
L89921 55511
" />
<path d="M66102 70767
L65098 69783
" />
<circle cx="66102.4" cy="54527.6" r="656.168" /> 
<path d="M67086 54527
L65118 54527
" />
<path d="M66102 53543
L66102 55511
" />
<path d="M66102 72834
L97106 72834
" />
<path d="M97106 57677
L97992 58562
" />
<circle cx="100256" cy="57578.7" r="656.168" /> 
<path d="M101240 57578
L99271 57578
" />
<path d="M100255 56594
L100255 58562
" />
<circle cx="65118.1" cy="72834.6" r="656.168" /> 
<path d="M66102 72834
L64133 72834
" />
<path d="M65118 71850
L65118 73818
" />
<circle cx="66102.4" cy="73818.9" r="656.168" /> 
<path d="M67086 73818
L65118 73818
" />
<path d="M66102 72834
L66102 74803
" />
<path d="M62854 58562
L62854 69783
" />
<circle cx="98090.6" cy="72834.6" r="656.168" /> 
<path d="M99074 72834
L97106 72834
" />
<path d="M98090 71850
L98090 73818
" />
<path d="M100255 69783
L100255 58562
" />
<path d="M65177 58562
L62854 58562
" />
<path d="M68661 55511
L66102 55511
" />
<path d="M89921 65551
L68661 65551
" />
<circle cx="101240" cy="58563" r="656.168" /> 
<path d="M102224 58562
L100255 58562
" />
<path d="M101240 57578
L101240 59547
" />
<path d="M68661 65551
L68661 55511
" />
<path d="M62854 69783
L65098 69783
" />
<path d="M66102 70767
L66102 72834
" />
<path d="M98051 69783
L100255 69783
" />
<circle cx="100256" cy="70767.7" r="656.168" /> 
<path d="M101240 70767
L99271 70767
" />
<path d="M100255 69783
L100255 71751
" />
<path d="M66102 57677
L65177 58562
" />
<circle cx="98090.6" cy="55511.8" r="656.168" /> 
<path d="M99074 55511
L97106 55511
" />
<path d="M98090 54527
L98090 56496
" />
<path d="M97106 72834
L97106 70728
" />
<circle cx="62854.3" cy="57578.7" r="656.168" /> 
<path d="M63838 57578
L61870 57578
" />
<path d="M62854 56594
L62854 58562
" />
<circle cx="61870.1" cy="58563" r="656.168" /> 
<path d="M62854 58562
L60885 58562
" />
<path d="M61870 57578
L61870 59547
" />
<circle cx="101240" cy="69783.5" r="656.168" /> 
<path d="M102224 69783
L100255 69783
" />
<path d="M101240 68799
L101240 70767
" />
<circle cx="62854.3" cy="70767.7" r="656.168" /> 
<path d="M63838 70767
L61870 70767
" />
<path d="M62854 69783
L62854 71751
" />
<circle cx="97106.3" cy="54527.6" r="656.168" /> 
<path d="M98090 54527
L96122 54527
" />
<path d="M97106 53543
L97106 55511
" />
<circle cx="18954.7" cy="50295.3" r="656.168" /> 
<path d="M19938 50295
L17970 50295
" />
<path d="M18954 49311
L18954 51279
" />
<path d="M15706 35039
L15706 46259
" />
<circle cx="50942.9" cy="49311" r="656.168" /> 
<path d="M51927 49311
L49958 49311
" />
<path d="M50942 48326
L50942 50295
" />
<path d="M53108 46259
L53108 35039
" />
<path d="M18029 35039
L15706 35039
" />
<path d="M21513 31988
L18954 31988
" />
<path d="M42773 42027
L21513 42027
" />
<path d="M15706 46259
L17950 46259
" />
<path d="M18954 47244
L18954 49311
" />
<path d="M50903 46259
L53108 46259
" />
<circle cx="53108.3" cy="47244.1" r="656.168" /> 
<path d="M54092 47244
L52124 47244
" />
<path d="M53108 46259
L53108 48228
" />
<path d="M18954 34153
L18029 35039
" />
<path d="M42773 31988
L42773 42027
" />
<path d="M50903 46259
L49958 47204
" />
<circle cx="49958.7" cy="50295.3" r="656.168" /> 
<path d="M50942 50295
L48974 50295
" />
<path d="M49958 49311
L49958 51279
" />
<path d="M49958 31988
L42773 31988
" />
<path d="M18954 47244
L17950 46259
" />
<path d="M21513 42027
L21513 31988
" />
<path d="M18954 49311
L49958 49311
" />
<circle cx="17970.5" cy="49311" r="656.168" /> 
<path d="M18954 49311
L16986 49311
" />
<path d="M17970 48326
L17970 50295
" />
<path d="M18954 31988
L18954 34153
" />
<path d="M49958 49311
L49958 47204
" />
<circle cx="49958.7" cy="31003.9" r="656.168" /> 
<path d="M50942 31003
L48974 31003
" />
<path d="M49958 30019
L49958 31988
" />
<circle cx="50942.9" cy="31988.2" r="656.168" /> 
<path d="M51927 31988
L49958 31988
" />
<path d="M50942 31003
L50942 32972
" />
<circle cx="54092.5" cy="35039.4" r="656.168" /> 
<path d="M55076 35039
L53108 35039
" />
<path d="M54092 34055
L54092 36023
" />
<circle cx="53108.3" cy="34055.1" r="656.168" /> 
<path d="M54092 34055
L52124 34055
" />
<path d="M53108 33070
L53108 35039
" />
<circle cx="18954.7" cy="31003.9" r="656.168" /> 
<path d="M19938 31003
L17970 31003
" />
<path d="M18954 30019
L18954 31988
" />
<circle cx="17970.5" cy="31988.2" r="656.168" /> 
<path d="M18954 31988
L16986 31988
" />
<path d="M17970 31003
L17970 32972
" />
<circle cx="14722.4" cy="35039.4" r="656.168" /> 
<path d="M15706 35039
L13738 35039
" />
<path d="M14722 34055
L14722 36023
" />
<circle cx="15706.7" cy="34055.1" r="656.168" /> 
<path d="M16690 34055
L14722 34055
" />
<path d="M15706 33070
L15706 35039
" />
<circle cx="14722.4" cy="46259.8" r="656.168" /> 
<path d="M15706 46259
L13738 46259
" />
<path d="M14722 45275
L14722 47244
" />
<circle cx="54092.5" cy="46259.8" r="656.168" /> 
<path d="M55076 46259
L53108 46259
" />
<path d="M54092 45275
L54092 47244
" />
<path d="M53108 35039
L50844 35039
" />
<circle cx="15706.7" cy="47244.1" r="656.168" /> 
<path d="M16690 47244
L14722 47244
" />
<path d="M15706 46259
L15706 48228
" />
<path d="M49958 34153
L50844 35039
" />
<path d="M49958 34153
L49958 31988
" />
<path d="M101197 46259
L101197 35039
" />
<path d="M69602 42027
L69602 31988
" />
<path d="M66118 35039
L63795 35039
" />
<path d="M69602 31988
L67043 31988
" />
<path d="M90862 42027
L69602 42027
" />
<path d="M63795 46259
L66039 46259
" />
<path d="M67043 47244
L67043 49311
" />
<path d="M98992 46259
L101197 46259
" />
<circle cx="101197" cy="47244.1" r="656.168" /> 
<path d="M102181 47244
L100212 47244
" />
<path d="M101197 46259
L101197 48228
" />
<circle cx="67043.5" cy="50295.3" r="656.168" /> 
<path d="M68027 50295
L66059 50295
" />
<path d="M67043 49311
L67043 51279
" />
<path d="M63795 35039
L63795 46259
" />
<circle cx="99031.7" cy="49311" r="656.168" /> 
<path d="M100015 49311
L98047 49311
" />
<path d="M99031 48326
L99031 50295
" />
<path d="M67043 49311
L98047 49311
" />
<circle cx="66059.2" cy="49311" r="656.168" /> 
<path d="M67043 49311
L65074 49311
" />
<path d="M66059 48326
L66059 50295
" />
<path d="M67043 31988
L67043 34153
" />
<path d="M98047 49311
L98047 47204
" />
<circle cx="98047.4" cy="31003.9" r="656.168" /> 
<path d="M99031 31003
L97063 31003
" />
<path d="M98047 30019
L98047 31988
" />
<circle cx="99031.7" cy="31988.2" r="656.168" /> 
<path d="M100015 31988
L98047 31988
" />
<path d="M99031 31003
L99031 32972
" />
<circle cx="102181" cy="35039.4" r="656.168" /> 
<path d="M103165 35039
L101197 35039
" />
<path d="M102181 34055
L102181 36023
" />
<circle cx="101197" cy="34055.1" r="656.168" /> 
<path d="M102181 34055
L100212 34055
" />
<path d="M101197 33070
L101197 35039
" />
<circle cx="67043.5" cy="31003.9" r="656.168" /> 
<path d="M68027 31003
L66059 31003
" />
<path d="M67043 30019
L67043 31988
" />
<circle cx="66059.2" cy="31988.2" r="656.168" /> 
<path d="M67043 31988
L65074 31988
" />
<path d="M66059 31003
L66059 32972
" />
<circle cx="62811.2" cy="35039.4" r="656.168" /> 
<path d="M63795 35039
L61826 35039
" />
<path d="M62811 34055
L62811 36023
" />
<circle cx="63795.5" cy="34055.1" r="656.168" /> 
<path d="M64779 34055
L62811 34055
" />
<path d="M63795 33070
L63795 35039
" />
<circle cx="62811.2" cy="46259.8" r="656.168" /> 
<path d="M63795 46259
L61826 46259
" />
<path d="M62811 45275
L62811 47244
" />
<circle cx="102181" cy="46259.8" r="656.168" /> 
<path d="M103165 46259
L101197 46259
" />
<path d="M102181 45275
L102181 47244
" />
<path d="M101197 35039
L98933 35039
" />
<circle cx="63795.5" cy="47244.1" r="656.168" /> 
<path d="M64779 47244
L62811 47244
" />
<path d="M63795 46259
L63795 48228
" />
<path d="M90862 31988
L90862 42027
" />
<path d="M98992 46259
L98047 47204
" />
<circle cx="98047.4" cy="50295.3" r="656.168" /> 
<path d="M99031 50295
L97063 50295
" />
<path d="M98047 49311
L98047 51279
" />
<path d="M98047 31988
L90862 31988
" />
<path d="M67043 47244
L66039 46259
" />
<path d="M67043 34153
L66118 35039
" />
<path d="M98047 34153
L98047 31988
" />
<path d="M98047 34153
L98933 35039
" />
<path d="M50206 10433
L51092 11318
" />
<path d="M19202 23523
L18198 22539
" />
<path d="M19202 10433
L18277 11318
" />
<path d="M51151 22539
L50206 23484
" />
<path d="M50206 8267
L43021 8267
" />
<path d="M43021 8267
L43021 18307
" />
<path d="M43021 18307
L21761 18307
" />
<path d="M21761 18307
L21761 8267
" />
<path d="M21761 8267
L19202 8267
" />
<path d="M19202 8267
L19202 10433
" />
<path d="M18277 11318
L15954 11318
" />
<path d="M15954 11318
L15954 22539
" />
<path d="M15954 22539
L18198 22539
" />
<path d="M19202 23523
L19202 25590
" />
<path d="M19202 25590
L50206 25590
" />
<path d="M50206 25590
L50206 23484
" />
<path d="M51151 22539
L53356 22539
" />
<path d="M53356 22539
L53356 11318
" />
<path d="M53356 11318
L51092 11318
" />
<circle cx="50206.7" cy="7283.46" r="656.168" /> 
<path d="M51190 7283
L49222 7283
" />
<path d="M50206 6299
L50206 8267
" />
<circle cx="51190.9" cy="8267.72" r="656.168" /> 
<path d="M52175 8267
L50206 8267
" />
<path d="M51190 7283
L51190 9251
" />
<circle cx="54340.6" cy="11318.9" r="656.168" /> 
<path d="M55324 11318
L53356 11318
" />
<path d="M54340 10334
L54340 12303
" />
<circle cx="53356.3" cy="10334.6" r="656.168" /> 
<path d="M54340 10334
L52372 10334
" />
<path d="M53356 9350
L53356 11318
" />
<circle cx="19202.8" cy="7283.46" r="656.168" /> 
<path d="M20187 7283
L18218 7283
" />
<path d="M19202 6299
L19202 8267
" />
<circle cx="18218.5" cy="8267.72" r="656.168" /> 
<path d="M19202 8267
L17234 8267
" />
<path d="M18218 7283
L18218 9251
" />
<circle cx="14970.5" cy="11318.9" r="656.168" /> 
<path d="M15954 11318
L13986 11318
" />
<path d="M14970 10334
L14970 12303
" />
<circle cx="15954.7" cy="10334.6" r="656.168" /> 
<path d="M16938 10334
L14970 10334
" />
<path d="M15954 9350
L15954 11318
" />
<circle cx="14970.5" cy="22539.4" r="656.168" /> 
<path d="M15954 22539
L13986 22539
" />
<path d="M14970 21555
L14970 23523
" />
<circle cx="15954.7" cy="23523.6" r="656.168" /> 
<path d="M16938 23523
L14970 23523
" />
<path d="M15954 22539
L15954 24507
" />
<circle cx="18218.5" cy="25590.6" r="656.168" /> 
<path d="M19202 25590
L17234 25590
" />
<path d="M18218 24606
L18218 26574
" />
<circle cx="19202.8" cy="26574.8" r="656.168" /> 
<path d="M20187 26574
L18218 26574
" />
<path d="M19202 25590
L19202 27559
" />
<circle cx="50206.7" cy="26574.8" r="656.168" /> 
<path d="M51190 26574
L49222 26574
" />
<path d="M50206 25590
L50206 27559
" />
<circle cx="51190.9" cy="25590.6" r="656.168" /> 
<path d="M52175 25590
L50206 25590
" />
<path d="M51190 24606
L51190 26574
" />
<circle cx="53356.3" cy="23523.6" r="656.168" /> 
<path d="M54340 23523
L52372 23523
" />
<path d="M53356 22539
L53356 24507
" />
<circle cx="54340.6" cy="22539.4" r="656.168" /> 
<path d="M55324 22539
L53356 22539
" />
<path d="M54340 21555
L54340 23523
" />
<path d="M50206 10433
L50206 8267
" />
<circle cx="102224" cy="22637.8" r="656.168" /> 
<path d="M103208 22637
L101240 22637
" />
<path d="M102224 21653
L102224 23622
" />
<circle cx="101240" cy="23622" r="656.168" /> 
<path d="M102224 23622
L100255 23622
" />
<path d="M101240 22637
L101240 24606
" />
<circle cx="99074.8" cy="25689" r="656.168" /> 
<path d="M100059 25688
L98090 25688
" />
<path d="M99074 24704
L99074 26673
" />
<circle cx="98090.6" cy="26673.2" r="656.168" /> 
<path d="M99074 26673
L97106 26673
" />
<path d="M98090 25688
L98090 27657
" />
<circle cx="67086.6" cy="26673.2" r="656.168" /> 
<path d="M68070 26673
L66102 26673
" />
<path d="M67086 25688
L67086 27657
" />
<circle cx="66102.4" cy="25689" r="656.168" /> 
<path d="M67086 25688
L65118 25688
" />
<path d="M66102 24704
L66102 26673
" />
<circle cx="63838.6" cy="23622" r="656.168" /> 
<path d="M64822 23622
L62854 23622
" />
<path d="M63838 22637
L63838 24606
" />
<circle cx="62854.3" cy="22637.8" r="656.168" /> 
<path d="M63838 22637
L61870 22637
" />
<path d="M62854 21653
L62854 23622
" />
<circle cx="63838.6" cy="10433.1" r="656.168" /> 
<path d="M64822 10433
L62854 10433
" />
<path d="M63838 9448
L63838 11417
" />
<circle cx="62854.3" cy="11417.3" r="656.168" /> 
<path d="M63838 11417
L61870 11417
" />
<path d="M62854 10433
L62854 12401
" />
<circle cx="66102.4" cy="8366.14" r="656.168" /> 
<path d="M67086 8366
L65118 8366
" />
<path d="M66102 7381
L66102 9350
" />
<circle cx="67086.6" cy="7381.89" r="656.168" /> 
<path d="M68070 7381
L66102 7381
" />
<path d="M67086 6397
L67086 8366
" />
<circle cx="101240" cy="10433.1" r="656.168" /> 
<path d="M102224 10433
L100255 10433
" />
<path d="M101240 9448
L101240 11417
" />
<circle cx="102224" cy="11417.3" r="656.168" /> 
<path d="M103208 11417
L101240 11417
" />
<path d="M102224 10433
L102224 12401
" />
<circle cx="99074.8" cy="8366.14" r="656.168" /> 
<path d="M100059 8366
L98090 8366
" />
<path d="M99074 7381
L99074 9350
" />
<circle cx="98090.6" cy="7381.89" r="656.168" /> 
<path d="M99074 7381
L97106 7381
" />
<path d="M98090 6397
L98090 8366
" />
<path d="M67086 10531
L66161 11417
" />
<path d="M67086 23622
L66082 22637
" />
<path d="M99035 22637
L98090 23582
" />
<path d="M98090 10531
L98976 11417
" />
<path d="M98090 10531
L98090 8366
" />
<path d="M101240 11417
L98976 11417
" />
<path d="M101240 22637
L101240 11417
" />
<path d="M99035 22637
L101240 22637
" />
<path d="M98090 25688
L98090 23582
" />
<path d="M67086 25688
L98090 25688
" />
<path d="M67086 23622
L67086 25688
" />
<path d="M63838 22637
L66082 22637
" />
<path d="M63838 11417
L63838 22637
" />
<path d="M66161 11417
L63838 11417
" />
<path d="M67086 8366
L67086 10531
" />
<path d="M69645 8366
L67086 8366
" />
<path d="M69645 18405
L69645 8366
" />
<path d="M90905 18405
L69645 18405
" />
<path d="M90905 8366
L90905 18405
" />
<path d="M98090 8366
L90905 8366
" />
<g >
</g>
<g >
</g>
<g >
</g>
<g >
</g>
<g >
</g>
<g >
</g>
<g >
</g>
<g >
</g>
<g >
</g>
<g >
</g>
<g >
</g>
<g >
</g>
<g >
</g>
<g >
</g>
<g >
</g>
<g >
</g>
<g >
</g>
<g >
</g>
<g >
</g>
<g >
</g>
<g >
</g>
<g >
</g>
<g >
</g>
<g >
</g>
<g >
</g>
<g >
</g>
<g >
</g>
<g >
</g>
<g >
</g>
<g >
</g>
<g >
</g>
<g >
</g>
<g >
</g>
<g >
</g>
<g >
</g>
<g >
</g>
<g >
</g>
<g >
</g>
<g >
</g>
<g >
</g>
<g >
</g>
<g >
</g>
<g >
</g>
<g >
</g>
<g >
</g>
<g >
</g>
<g >
</g>
<g >
</g>
<g >
</g>
<g >
</g>
<g >
</g>
<g >
</g>
<g >
</g>
<g >
</g>
<g >
</g>
<g >
</g>
<g >
</g>
<g >
</g>
<g >
</g>
<g >
</g>
<g >
</g>
<g >
</g>
<g >
</g>
<g >
</g>
<g >
</g>
<g >
</g>
<g >
</g>
<g >
</g>
<g >
</g>
<g >
</g>
<g >
</g>
<g >
</g>
<g >
</g>
<g >
</g>
<g >
</g>
<g >
</g>
<g >
</g>
<g >
</g>
<g >
</g>
<g >
</g>
<g >
</g>
<g >
</g>
<g >
</g>
<g >
</g>
<g >
</g>
<g >
</g>
<g >
</g>
<g >
</g>
<g >
</g>
<g >
</g>
<g >
</g>
<g >
</g>
<g >
</g>
<g >
</g>
<g >
</g>
<g >
</g>
<g >
</g>
<g >
</g>
<g >
</g>
<g >
</g>
<g >
</g>
<g >
</g>
<g >
</g>
<g >
</g>
<g >
</g>
<g >
</g>
<g >
</g>
<g >
</g>
<g >
</g>
<g >
</g>
<g >
</g>
<g >
</g>
<g >
</g>
<g >
</g>
<g >
</g>
<g >
</g>
<g >
</g>
<g >
</g>
<g >
</g>
<g >
</g>
<g >
</g>
</g> 
</svg>
